<?xml version="1.0"?>
<!-- Generated by SVGo and Plotinum VG -->
<svg width="720pt" height="720pt" viewBox="0 0 720 720"
	xmlns="http://www.w3.org/2000/svg"
	xmlns:xlink="http://www.w3.org/1999/xlink">
<g transform="scale(1, -1) translate(0, -720)">
<path d="M0,0L720,0L720,720L0,720Z" style="fill:#FFFFFF" />
<text x="337.34" y="-708.45" transform="scale(1, -1)"
	style="font-family:Times;font-weight:normal;font-style:normal;font-size:12px">Parabolic</text>
<text x="380.25" y="-3.8613" transform="scale(1, -1)"
	style="font-family:Times;font-weight:normal;font-style:normal;font-size:12px">X</text>
<text x="46.666" y="-15.602" transform="scale(1, -1)"
	style="font-family:Times;font-weight:normal;font-style:normal;font-size:10px">0</text>
<text x="253.7" y="-15.602" transform="scale(1, -1)"
	style="font-family:Times;font-weight:normal;font-style:normal;font-size:10px">3</text>
<text x="460.73" y="-15.602" transform="scale(1, -1)"
	style="font-family:Times;font-weight:normal;font-style:normal;font-size:10px">6</text>
<text x="667.76" y="-15.602" transform="scale(1, -1)"
	style="font-family:Times;font-weight:normal;font-style:normal;font-size:10px">9</text>
<path d="M49.166,25.23L49.166,33.23" style="fill:none;stroke:#000000;stroke-width:0.5" />
<path d="M256.2,25.23L256.2,33.23" style="fill:none;stroke:#000000;stroke-width:0.5" />
<path d="M463.23,25.23L463.23,33.23" style="fill:none;stroke:#000000;stroke-width:0.5" />
<path d="M670.26,25.23L670.26,33.23" style="fill:none;stroke:#000000;stroke-width:0.5" />
<path d="M118.18,29.23L118.18,33.23" style="fill:none;stroke:#000000;stroke-width:0.5" />
<path d="M187.19,29.23L187.19,33.23" style="fill:none;stroke:#000000;stroke-width:0.5" />
<path d="M325.21,29.23L325.21,33.23" style="fill:none;stroke:#000000;stroke-width:0.5" />
<path d="M394.22,29.23L394.22,33.23" style="fill:none;stroke:#000000;stroke-width:0.5" />
<path d="M532.24,29.23L532.24,33.23" style="fill:none;stroke:#000000;stroke-width:0.5" />
<path d="M601.25,29.23L601.25,33.23" style="fill:none;stroke:#000000;stroke-width:0.5" />
<path d="M49.166,33.23L720,33.23" style="fill:none;stroke:#000000;stroke-width:0.5" />
<g transform="rotate(90)">
<text x="367.2" y="11.555" transform="scale(1, -1)"
	style="font-family:Times;font-weight:normal;font-style:normal;font-size:12px">Y</text>
</g>
<text x="15.416" y="-33.759" transform="scale(1, -1)"
	style="font-family:Times;font-weight:normal;font-style:normal;font-size:10px">0.00</text>
<text x="15.416" y="-323.88" transform="scale(1, -1)"
	style="font-family:Times;font-weight:normal;font-style:normal;font-size:10px">2.50</text>
<text x="15.416" y="-614.01" transform="scale(1, -1)"
	style="font-family:Times;font-weight:normal;font-style:normal;font-size:10px">5.00</text>
<path d="M35.416,38.48L43.416,38.48" style="fill:none;stroke:#000000;stroke-width:0.5" />
<path d="M35.416,328.61L43.416,328.61" style="fill:none;stroke:#000000;stroke-width:0.5" />
<path d="M35.416,618.73L43.416,618.73" style="fill:none;stroke:#000000;stroke-width:0.5" />
<path d="M39.416,96.505L43.416,96.505" style="fill:none;stroke:#000000;stroke-width:0.5" />
<path d="M39.416,154.53L43.416,154.53" style="fill:none;stroke:#000000;stroke-width:0.5" />
<path d="M39.416,212.56L43.416,212.56" style="fill:none;stroke:#000000;stroke-width:0.5" />
<path d="M39.416,270.58L43.416,270.58" style="fill:none;stroke:#000000;stroke-width:0.5" />
<path d="M39.416,386.63L43.416,386.63" style="fill:none;stroke:#000000;stroke-width:0.5" />
<path d="M39.416,444.66L43.416,444.66" style="fill:none;stroke:#000000;stroke-width:0.5" />
<path d="M39.416,502.68L43.416,502.68" style="fill:none;stroke:#000000;stroke-width:0.5" />
<path d="M39.416,560.71L43.416,560.71" style="fill:none;stroke:#000000;stroke-width:0.5" />
<path d="M39.416,676.76L43.416,676.76" style="fill:none;stroke:#000000;stroke-width:0.5" />
<path d="M43.416,38.48L43.416,704.58" style="fill:none;stroke:#000000;stroke-width:0.5" />
<path d="M49.166,38.48L62.857,77.461L76.547,114.65L90.237,150.05L103.93,183.66L117.62,215.48L131.31,245.51L145,273.75L158.69,300.19L172.38,324.85L186.07,347.72L199.76,368.8L213.45,388.08L227.14,405.58L240.83,421.29L254.52,435.2L268.21,447.33L281.9,457.66L295.59,466.21L309.29,472.96L322.98,477.93L336.67,481.1L350.36,482.48L364.05,482.08L377.74,479.88L391.43,475.89L405.12,470.11L418.81,462.55L432.5,453.19L446.19,442.04L459.88,429.1L473.57,414.37L487.26,397.85L500.95,379.54L514.64,359.44L528.33,337.55L542.02,313.87L555.71,288.39L569.4,261.13L583.1,232.08L596.79,201.24L610.48,168.61L624.17,134.18L637.86,97.968L651.55,59.964L658.94,38.48" style="fill:none;stroke:#0000FF" />
</g>
</svg>
