<?xml version="1.0"?>
<!-- Generated by SVGo and Plotinum VG -->
<svg width="720pt" height="720pt" viewBox="0 0 720 720"
	xmlns="http://www.w3.org/2000/svg"
	xmlns:xlink="http://www.w3.org/1999/xlink">
<g transform="scale(1, -1) translate(0, -720)">
<path d="M0,0L720,0L720,720L0,720Z" style="fill:#FFFFFF" />
<text x="337.34" y="-708.45" transform="scale(1, -1)"
	style="font-family:Times;font-weight:normal;font-style:normal;font-size:12px">Parabolic</text>
<text x="25" y="-0.18555" transform="scale(1, -1)"
	style="font-family:Times;font-weight:normal;font-style:normal;font-size:10px">0.00</text>
<text x="672.6" y="-0.18555" transform="scale(1, -1)"
	style="font-family:Times;font-weight:normal;font-style:normal;font-size:10px">2500.00</text>
<path d="M33.75,9.8145L33.75,17.814" style="fill:none;stroke:#000000;stroke-width:0.5" />
<path d="M688.85,9.8145L688.85,17.814" style="fill:none;stroke:#000000;stroke-width:0.5" />
<path d="M164.77,13.814L164.77,17.814" style="fill:none;stroke:#000000;stroke-width:0.5" />
<path d="M295.79,13.814L295.79,17.814" style="fill:none;stroke:#000000;stroke-width:0.5" />
<path d="M426.81,13.814L426.81,17.814" style="fill:none;stroke:#000000;stroke-width:0.5" />
<path d="M557.83,13.814L557.83,17.814" style="fill:none;stroke:#000000;stroke-width:0.5" />
<path d="M33.75,17.814L720,17.814" style="fill:none;stroke:#000000;stroke-width:0.5" />
<text x="10" y="-20.843" transform="scale(1, -1)"
	style="font-family:Times;font-weight:normal;font-style:normal;font-size:10px">0</text>
<text x="0" y="-292.46" transform="scale(1, -1)"
	style="font-family:Times;font-weight:normal;font-style:normal;font-size:10px">200</text>
<text x="0" y="-564.08" transform="scale(1, -1)"
	style="font-family:Times;font-weight:normal;font-style:normal;font-size:10px">400</text>
<path d="M17.5,25.564L25.5,25.564" style="fill:none;stroke:#000000;stroke-width:0.5" />
<path d="M17.5,297.18L25.5,297.18" style="fill:none;stroke:#000000;stroke-width:0.5" />
<path d="M17.5,568.8L25.5,568.8" style="fill:none;stroke:#000000;stroke-width:0.5" />
<path d="M21.5,161.37L25.5,161.37" style="fill:none;stroke:#000000;stroke-width:0.5" />
<path d="M21.5,432.99L25.5,432.99" style="fill:none;stroke:#000000;stroke-width:0.5" />
<path d="M25.5,25.564L25.5,704.58" style="fill:none;stroke:#000000;stroke-width:0.5" />
<path d="M33.75,25.564L36.927,35.005L40.104,44.311L43.281,53.485L46.458,62.526L49.635,71.434L52.812,80.208L55.99,88.85L59.167,97.358L62.344,105.73L65.521,113.98L68.698,122.09L71.875,130.06L75.052,137.9L78.229,145.61L81.406,153.19L84.583,160.63L87.76,167.95L90.938,175.12L94.115,182.17L97.292,189.08L100.47,195.86L103.65,202.5L106.82,209.01L110,215.39L113.18,221.64L116.35,227.75L119.53,233.73L122.71,239.58L125.89,245.29L129.06,250.87L132.24,256.32L135.42,261.63L138.59,266.81L141.77,271.86L144.95,276.78L148.12,281.56L151.3,286.21L154.48,290.72L157.66,295.11L160.83,299.35L164.01,303.47L167.19,307.45L170.36,311.3L173.54,315.02L176.72,318.61L179.9,322.06L183.07,325.37L186.25,328.56L189.43,331.61L192.6,334.53L195.78,337.31L198.96,339.97L202.14,342.49L205.31,344.87L208.49,347.13L211.67,349.25L214.84,351.23L218.02,353.09L221.2,354.81L224.38,356.39L227.55,357.85L230.73,359.17L233.91,360.36L237.08,361.41L240.26,362.34L243.44,363.13L246.61,363.78L249.79,364.3L252.97,364.69L256.15,364.95L259.32,365.07L262.5,365.06L265.68,364.92L268.85,364.65L272.03,364.24L275.21,363.7L278.39,363.02L281.56,362.21L284.74,361.27L287.92,360.2L291.09,358.99L294.27,357.65L297.45,356.18L300.63,354.57L303.8,352.83L306.98,350.96L310.16,348.95L313.33,346.81L316.51,344.54L319.69,342.13L322.86,339.6L326.04,336.93L329.22,334.12L332.4,331.18L335.57,328.11L338.75,324.91L341.93,321.57L345.1,318.1L348.28,314.5L351.46,310.76L354.64,306.89L357.81,302.89L360.99,298.76L364.17,294.49L367.34,290.09L370.52,285.55L373.7,280.88L376.88,276.08L380.05,271.15L383.23,266.08L386.41,260.88L389.58,255.55L392.76,250.08L395.94,244.48L399.11,238.75L402.29,232.88L405.47,226.89L408.65,220.75L411.82,214.49L415,208.09L418.18,201.56L421.35,194.9L424.53,188.1L427.71,181.17L430.89,174.11L434.06,166.91L437.24,159.58L440.42,152.12L443.59,144.52L446.77,136.79L449.95,128.93L453.13,120.93L456.3,112.81L459.48,104.55L462.66,96.151L465.83,87.624L469.01,78.963L472.19,70.169L475.36,61.243L478.54,52.183L481.72,42.99L484.9,33.664L487.62,25.564" style="fill:none;stroke:#F15A60" />
<path d="M36.25,25.564A2.5,2.5 0 1 1 31.25,25.564A2.5,2.5 0 1 1 36.25,25.564Z" style="fill:none;stroke:#F15A60;stroke-width:0.5" />
<path d="M39.427,35.005A2.5,2.5 0 1 1 34.427,35.005A2.5,2.5 0 1 1 39.427,35.005Z" style="fill:none;stroke:#F15A60;stroke-width:0.5" />
<path d="M42.604,44.311A2.5,2.5 0 1 1 37.604,44.311A2.5,2.5 0 1 1 42.604,44.311Z" style="fill:none;stroke:#F15A60;stroke-width:0.5" />
<path d="M45.781,53.485A2.5,2.5 0 1 1 40.781,53.485A2.5,2.5 0 1 1 45.781,53.485Z" style="fill:none;stroke:#F15A60;stroke-width:0.5" />
<path d="M48.958,62.526A2.5,2.5 0 1 1 43.958,62.526A2.5,2.5 0 1 1 48.958,62.526Z" style="fill:none;stroke:#F15A60;stroke-width:0.5" />
<path d="M52.135,71.434A2.5,2.5 0 1 1 47.135,71.434A2.5,2.5 0 1 1 52.135,71.434Z" style="fill:none;stroke:#F15A60;stroke-width:0.5" />
<path d="M55.312,80.208A2.5,2.5 0 1 1 50.312,80.208A2.5,2.5 0 1 1 55.312,80.208Z" style="fill:none;stroke:#F15A60;stroke-width:0.5" />
<path d="M58.49,88.85A2.5,2.5 0 1 1 53.49,88.85A2.5,2.5 0 1 1 58.49,88.85Z" style="fill:none;stroke:#F15A60;stroke-width:0.5" />
<path d="M61.667,97.358A2.5,2.5 0 1 1 56.667,97.358A2.5,2.5 0 1 1 61.667,97.358Z" style="fill:none;stroke:#F15A60;stroke-width:0.5" />
<path d="M64.844,105.73A2.5,2.5 0 1 1 59.844,105.73A2.5,2.5 0 1 1 64.844,105.73Z" style="fill:none;stroke:#F15A60;stroke-width:0.5" />
<path d="M68.021,113.98A2.5,2.5 0 1 1 63.021,113.98A2.5,2.5 0 1 1 68.021,113.98Z" style="fill:none;stroke:#F15A60;stroke-width:0.5" />
<path d="M71.198,122.09A2.5,2.5 0 1 1 66.198,122.09A2.5,2.5 0 1 1 71.198,122.09Z" style="fill:none;stroke:#F15A60;stroke-width:0.5" />
<path d="M74.375,130.06A2.5,2.5 0 1 1 69.375,130.06A2.5,2.5 0 1 1 74.375,130.06Z" style="fill:none;stroke:#F15A60;stroke-width:0.5" />
<path d="M77.552,137.9A2.5,2.5 0 1 1 72.552,137.9A2.5,2.5 0 1 1 77.552,137.9Z" style="fill:none;stroke:#F15A60;stroke-width:0.5" />
<path d="M80.729,145.61A2.5,2.5 0 1 1 75.729,145.61A2.5,2.5 0 1 1 80.729,145.61Z" style="fill:none;stroke:#F15A60;stroke-width:0.5" />
<path d="M83.906,153.19A2.5,2.5 0 1 1 78.906,153.19A2.5,2.5 0 1 1 83.906,153.19Z" style="fill:none;stroke:#F15A60;stroke-width:0.5" />
<path d="M87.083,160.63A2.5,2.5 0 1 1 82.083,160.63A2.5,2.5 0 1 1 87.083,160.63Z" style="fill:none;stroke:#F15A60;stroke-width:0.5" />
<path d="M90.26,167.95A2.5,2.5 0 1 1 85.26,167.95A2.5,2.5 0 1 1 90.26,167.95Z" style="fill:none;stroke:#F15A60;stroke-width:0.5" />
<path d="M93.438,175.12A2.5,2.5 0 1 1 88.438,175.12A2.5,2.5 0 1 1 93.438,175.12Z" style="fill:none;stroke:#F15A60;stroke-width:0.5" />
<path d="M96.615,182.17A2.5,2.5 0 1 1 91.615,182.17A2.5,2.5 0 1 1 96.615,182.17Z" style="fill:none;stroke:#F15A60;stroke-width:0.5" />
<path d="M99.792,189.08A2.5,2.5 0 1 1 94.792,189.08A2.5,2.5 0 1 1 99.792,189.08Z" style="fill:none;stroke:#F15A60;stroke-width:0.5" />
<path d="M102.97,195.86A2.5,2.5 0 1 1 97.969,195.86A2.5,2.5 0 1 1 102.97,195.86Z" style="fill:none;stroke:#F15A60;stroke-width:0.5" />
<path d="M106.15,202.5A2.5,2.5 0 1 1 101.15,202.5A2.5,2.5 0 1 1 106.15,202.5Z" style="fill:none;stroke:#F15A60;stroke-width:0.5" />
<path d="M109.32,209.01A2.5,2.5 0 1 1 104.32,209.01A2.5,2.5 0 1 1 109.32,209.01Z" style="fill:none;stroke:#F15A60;stroke-width:0.5" />
<path d="M112.5,215.39A2.5,2.5 0 1 1 107.5,215.39A2.5,2.5 0 1 1 112.5,215.39Z" style="fill:none;stroke:#F15A60;stroke-width:0.5" />
<path d="M115.68,221.64A2.5,2.5 0 1 1 110.68,221.64A2.5,2.5 0 1 1 115.68,221.64Z" style="fill:none;stroke:#F15A60;stroke-width:0.5" />
<path d="M118.85,227.75A2.5,2.5 0 1 1 113.85,227.75A2.5,2.5 0 1 1 118.85,227.75Z" style="fill:none;stroke:#F15A60;stroke-width:0.5" />
<path d="M122.03,233.73A2.5,2.5 0 1 1 117.03,233.73A2.5,2.5 0 1 1 122.03,233.73Z" style="fill:none;stroke:#F15A60;stroke-width:0.5" />
<path d="M125.21,239.58A2.5,2.5 0 1 1 120.21,239.58A2.5,2.5 0 1 1 125.21,239.58Z" style="fill:none;stroke:#F15A60;stroke-width:0.5" />
<path d="M128.39,245.29A2.5,2.5 0 1 1 123.39,245.29A2.5,2.5 0 1 1 128.39,245.29Z" style="fill:none;stroke:#F15A60;stroke-width:0.5" />
<path d="M131.56,250.87A2.5,2.5 0 1 1 126.56,250.87A2.5,2.5 0 1 1 131.56,250.87Z" style="fill:none;stroke:#F15A60;stroke-width:0.5" />
<path d="M134.74,256.32A2.5,2.5 0 1 1 129.74,256.32A2.5,2.5 0 1 1 134.74,256.32Z" style="fill:none;stroke:#F15A60;stroke-width:0.5" />
<path d="M137.92,261.63A2.5,2.5 0 1 1 132.92,261.63A2.5,2.5 0 1 1 137.92,261.63Z" style="fill:none;stroke:#F15A60;stroke-width:0.5" />
<path d="M141.09,266.81A2.5,2.5 0 1 1 136.09,266.81A2.5,2.5 0 1 1 141.09,266.81Z" style="fill:none;stroke:#F15A60;stroke-width:0.5" />
<path d="M144.27,271.86A2.5,2.5 0 1 1 139.27,271.86A2.5,2.5 0 1 1 144.27,271.86Z" style="fill:none;stroke:#F15A60;stroke-width:0.5" />
<path d="M147.45,276.78A2.5,2.5 0 1 1 142.45,276.78A2.5,2.5 0 1 1 147.45,276.78Z" style="fill:none;stroke:#F15A60;stroke-width:0.5" />
<path d="M150.62,281.56A2.5,2.5 0 1 1 145.62,281.56A2.5,2.5 0 1 1 150.62,281.56Z" style="fill:none;stroke:#F15A60;stroke-width:0.5" />
<path d="M153.8,286.21A2.5,2.5 0 1 1 148.8,286.21A2.5,2.5 0 1 1 153.8,286.21Z" style="fill:none;stroke:#F15A60;stroke-width:0.5" />
<path d="M156.98,290.72A2.5,2.5 0 1 1 151.98,290.72A2.5,2.5 0 1 1 156.98,290.72Z" style="fill:none;stroke:#F15A60;stroke-width:0.5" />
<path d="M160.16,295.11A2.5,2.5 0 1 1 155.16,295.11A2.5,2.5 0 1 1 160.16,295.11Z" style="fill:none;stroke:#F15A60;stroke-width:0.5" />
<path d="M163.33,299.35A2.5,2.5 0 1 1 158.33,299.35A2.5,2.5 0 1 1 163.33,299.35Z" style="fill:none;stroke:#F15A60;stroke-width:0.5" />
<path d="M166.51,303.47A2.5,2.5 0 1 1 161.51,303.47A2.5,2.5 0 1 1 166.51,303.47Z" style="fill:none;stroke:#F15A60;stroke-width:0.5" />
<path d="M169.69,307.45A2.5,2.5 0 1 1 164.69,307.45A2.5,2.5 0 1 1 169.69,307.45Z" style="fill:none;stroke:#F15A60;stroke-width:0.5" />
<path d="M172.86,311.3A2.5,2.5 0 1 1 167.86,311.3A2.5,2.5 0 1 1 172.86,311.3Z" style="fill:none;stroke:#F15A60;stroke-width:0.5" />
<path d="M176.04,315.02A2.5,2.5 0 1 1 171.04,315.02A2.5,2.5 0 1 1 176.04,315.02Z" style="fill:none;stroke:#F15A60;stroke-width:0.5" />
<path d="M179.22,318.61A2.5,2.5 0 1 1 174.22,318.61A2.5,2.5 0 1 1 179.22,318.61Z" style="fill:none;stroke:#F15A60;stroke-width:0.5" />
<path d="M182.4,322.06A2.5,2.5 0 1 1 177.4,322.06A2.5,2.5 0 1 1 182.4,322.06Z" style="fill:none;stroke:#F15A60;stroke-width:0.5" />
<path d="M185.57,325.37A2.5,2.5 0 1 1 180.57,325.37A2.5,2.5 0 1 1 185.57,325.37Z" style="fill:none;stroke:#F15A60;stroke-width:0.5" />
<path d="M188.75,328.56A2.5,2.5 0 1 1 183.75,328.56A2.5,2.5 0 1 1 188.75,328.56Z" style="fill:none;stroke:#F15A60;stroke-width:0.5" />
<path d="M191.93,331.61A2.5,2.5 0 1 1 186.93,331.61A2.5,2.5 0 1 1 191.93,331.61Z" style="fill:none;stroke:#F15A60;stroke-width:0.5" />
<path d="M195.1,334.53A2.5,2.5 0 1 1 190.1,334.53A2.5,2.5 0 1 1 195.1,334.53Z" style="fill:none;stroke:#F15A60;stroke-width:0.5" />
<path d="M198.28,337.31A2.5,2.5 0 1 1 193.28,337.31A2.5,2.5 0 1 1 198.28,337.31Z" style="fill:none;stroke:#F15A60;stroke-width:0.5" />
<path d="M201.46,339.97A2.5,2.5 0 1 1 196.46,339.97A2.5,2.5 0 1 1 201.46,339.97Z" style="fill:none;stroke:#F15A60;stroke-width:0.5" />
<path d="M204.64,342.49A2.5,2.5 0 1 1 199.64,342.49A2.5,2.5 0 1 1 204.64,342.49Z" style="fill:none;stroke:#F15A60;stroke-width:0.5" />
<path d="M207.81,344.87A2.5,2.5 0 1 1 202.81,344.87A2.5,2.5 0 1 1 207.81,344.87Z" style="fill:none;stroke:#F15A60;stroke-width:0.5" />
<path d="M210.99,347.13A2.5,2.5 0 1 1 205.99,347.13A2.5,2.5 0 1 1 210.99,347.13Z" style="fill:none;stroke:#F15A60;stroke-width:0.5" />
<path d="M214.17,349.25A2.5,2.5 0 1 1 209.17,349.25A2.5,2.5 0 1 1 214.17,349.25Z" style="fill:none;stroke:#F15A60;stroke-width:0.5" />
<path d="M217.34,351.23A2.5,2.5 0 1 1 212.34,351.23A2.5,2.5 0 1 1 217.34,351.23Z" style="fill:none;stroke:#F15A60;stroke-width:0.5" />
<path d="M220.52,353.09A2.5,2.5 0 1 1 215.52,353.09A2.5,2.5 0 1 1 220.52,353.09Z" style="fill:none;stroke:#F15A60;stroke-width:0.5" />
<path d="M223.7,354.81A2.5,2.5 0 1 1 218.7,354.81A2.5,2.5 0 1 1 223.7,354.81Z" style="fill:none;stroke:#F15A60;stroke-width:0.5" />
<path d="M226.88,356.39A2.5,2.5 0 1 1 221.88,356.39A2.5,2.5 0 1 1 226.88,356.39Z" style="fill:none;stroke:#F15A60;stroke-width:0.5" />
<path d="M230.05,357.85A2.5,2.5 0 1 1 225.05,357.85A2.5,2.5 0 1 1 230.05,357.85Z" style="fill:none;stroke:#F15A60;stroke-width:0.5" />
<path d="M233.23,359.17A2.5,2.5 0 1 1 228.23,359.17A2.5,2.5 0 1 1 233.23,359.17Z" style="fill:none;stroke:#F15A60;stroke-width:0.5" />
<path d="M236.41,360.36A2.5,2.5 0 1 1 231.41,360.36A2.5,2.5 0 1 1 236.41,360.36Z" style="fill:none;stroke:#F15A60;stroke-width:0.5" />
<path d="M239.58,361.41A2.5,2.5 0 1 1 234.58,361.41A2.5,2.5 0 1 1 239.58,361.41Z" style="fill:none;stroke:#F15A60;stroke-width:0.5" />
<path d="M242.76,362.34A2.5,2.5 0 1 1 237.76,362.34A2.5,2.5 0 1 1 242.76,362.34Z" style="fill:none;stroke:#F15A60;stroke-width:0.5" />
<path d="M245.94,363.13A2.5,2.5 0 1 1 240.94,363.13A2.5,2.5 0 1 1 245.94,363.13Z" style="fill:none;stroke:#F15A60;stroke-width:0.5" />
<path d="M249.11,363.78A2.5,2.5 0 1 1 244.11,363.78A2.5,2.5 0 1 1 249.11,363.78Z" style="fill:none;stroke:#F15A60;stroke-width:0.5" />
<path d="M252.29,364.3A2.5,2.5 0 1 1 247.29,364.3A2.5,2.5 0 1 1 252.29,364.3Z" style="fill:none;stroke:#F15A60;stroke-width:0.5" />
<path d="M255.47,364.69A2.5,2.5 0 1 1 250.47,364.69A2.5,2.5 0 1 1 255.47,364.69Z" style="fill:none;stroke:#F15A60;stroke-width:0.5" />
<path d="M258.65,364.95A2.5,2.5 0 1 1 253.65,364.95A2.5,2.5 0 1 1 258.65,364.95Z" style="fill:none;stroke:#F15A60;stroke-width:0.5" />
<path d="M261.82,365.07A2.5,2.5 0 1 1 256.82,365.07A2.5,2.5 0 1 1 261.82,365.07Z" style="fill:none;stroke:#F15A60;stroke-width:0.5" />
<path d="M265,365.06A2.5,2.5 0 1 1 260,365.06A2.5,2.5 0 1 1 265,365.06Z" style="fill:none;stroke:#F15A60;stroke-width:0.5" />
<path d="M268.18,364.92A2.5,2.5 0 1 1 263.18,364.92A2.5,2.5 0 1 1 268.18,364.92Z" style="fill:none;stroke:#F15A60;stroke-width:0.5" />
<path d="M271.35,364.65A2.5,2.5 0 1 1 266.35,364.65A2.5,2.5 0 1 1 271.35,364.65Z" style="fill:none;stroke:#F15A60;stroke-width:0.5" />
<path d="M274.53,364.24A2.5,2.5 0 1 1 269.53,364.24A2.5,2.5 0 1 1 274.53,364.24Z" style="fill:none;stroke:#F15A60;stroke-width:0.5" />
<path d="M277.71,363.7A2.5,2.5 0 1 1 272.71,363.7A2.5,2.5 0 1 1 277.71,363.7Z" style="fill:none;stroke:#F15A60;stroke-width:0.5" />
<path d="M280.89,363.02A2.5,2.5 0 1 1 275.89,363.02A2.5,2.5 0 1 1 280.89,363.02Z" style="fill:none;stroke:#F15A60;stroke-width:0.5" />
<path d="M284.06,362.21A2.5,2.5 0 1 1 279.06,362.21A2.5,2.5 0 1 1 284.06,362.21Z" style="fill:none;stroke:#F15A60;stroke-width:0.5" />
<path d="M287.24,361.27A2.5,2.5 0 1 1 282.24,361.27A2.5,2.5 0 1 1 287.24,361.27Z" style="fill:none;stroke:#F15A60;stroke-width:0.5" />
<path d="M290.42,360.2A2.5,2.5 0 1 1 285.42,360.2A2.5,2.5 0 1 1 290.42,360.2Z" style="fill:none;stroke:#F15A60;stroke-width:0.5" />
<path d="M293.59,358.99A2.5,2.5 0 1 1 288.59,358.99A2.5,2.5 0 1 1 293.59,358.99Z" style="fill:none;stroke:#F15A60;stroke-width:0.5" />
<path d="M296.77,357.65A2.5,2.5 0 1 1 291.77,357.65A2.5,2.5 0 1 1 296.77,357.65Z" style="fill:none;stroke:#F15A60;stroke-width:0.5" />
<path d="M299.95,356.18A2.5,2.5 0 1 1 294.95,356.18A2.5,2.5 0 1 1 299.95,356.18Z" style="fill:none;stroke:#F15A60;stroke-width:0.5" />
<path d="M303.13,354.57A2.5,2.5 0 1 1 298.13,354.57A2.5,2.5 0 1 1 303.13,354.57Z" style="fill:none;stroke:#F15A60;stroke-width:0.5" />
<path d="M306.3,352.83A2.5,2.5 0 1 1 301.3,352.83A2.5,2.5 0 1 1 306.3,352.83Z" style="fill:none;stroke:#F15A60;stroke-width:0.5" />
<path d="M309.48,350.96A2.5,2.5 0 1 1 304.48,350.96A2.5,2.5 0 1 1 309.48,350.96Z" style="fill:none;stroke:#F15A60;stroke-width:0.5" />
<path d="M312.66,348.95A2.5,2.5 0 1 1 307.66,348.95A2.5,2.5 0 1 1 312.66,348.95Z" style="fill:none;stroke:#F15A60;stroke-width:0.5" />
<path d="M315.83,346.81A2.5,2.5 0 1 1 310.83,346.81A2.5,2.5 0 1 1 315.83,346.81Z" style="fill:none;stroke:#F15A60;stroke-width:0.5" />
<path d="M319.01,344.54A2.5,2.5 0 1 1 314.01,344.54A2.5,2.5 0 1 1 319.01,344.54Z" style="fill:none;stroke:#F15A60;stroke-width:0.5" />
<path d="M322.19,342.13A2.5,2.5 0 1 1 317.19,342.13A2.5,2.5 0 1 1 322.19,342.13Z" style="fill:none;stroke:#F15A60;stroke-width:0.5" />
<path d="M325.36,339.6A2.5,2.5 0 1 1 320.36,339.6A2.5,2.5 0 1 1 325.36,339.6Z" style="fill:none;stroke:#F15A60;stroke-width:0.5" />
<path d="M328.54,336.93A2.5,2.5 0 1 1 323.54,336.93A2.5,2.5 0 1 1 328.54,336.93Z" style="fill:none;stroke:#F15A60;stroke-width:0.5" />
<path d="M331.72,334.12A2.5,2.5 0 1 1 326.72,334.12A2.5,2.5 0 1 1 331.72,334.12Z" style="fill:none;stroke:#F15A60;stroke-width:0.5" />
<path d="M334.9,331.18A2.5,2.5 0 1 1 329.9,331.18A2.5,2.5 0 1 1 334.9,331.18Z" style="fill:none;stroke:#F15A60;stroke-width:0.5" />
<path d="M338.07,328.11A2.5,2.5 0 1 1 333.07,328.11A2.5,2.5 0 1 1 338.07,328.11Z" style="fill:none;stroke:#F15A60;stroke-width:0.5" />
<path d="M341.25,324.91A2.5,2.5 0 1 1 336.25,324.91A2.5,2.5 0 1 1 341.25,324.91Z" style="fill:none;stroke:#F15A60;stroke-width:0.5" />
<path d="M344.43,321.57A2.5,2.5 0 1 1 339.43,321.57A2.5,2.5 0 1 1 344.43,321.57Z" style="fill:none;stroke:#F15A60;stroke-width:0.5" />
<path d="M347.6,318.1A2.5,2.5 0 1 1 342.6,318.1A2.5,2.5 0 1 1 347.6,318.1Z" style="fill:none;stroke:#F15A60;stroke-width:0.5" />
<path d="M350.78,314.5A2.5,2.5 0 1 1 345.78,314.5A2.5,2.5 0 1 1 350.78,314.5Z" style="fill:none;stroke:#F15A60;stroke-width:0.5" />
<path d="M353.96,310.76A2.5,2.5 0 1 1 348.96,310.76A2.5,2.5 0 1 1 353.96,310.76Z" style="fill:none;stroke:#F15A60;stroke-width:0.5" />
<path d="M357.14,306.89A2.5,2.5 0 1 1 352.14,306.89A2.5,2.5 0 1 1 357.14,306.89Z" style="fill:none;stroke:#F15A60;stroke-width:0.5" />
<path d="M360.31,302.89A2.5,2.5 0 1 1 355.31,302.89A2.5,2.5 0 1 1 360.31,302.89Z" style="fill:none;stroke:#F15A60;stroke-width:0.5" />
<path d="M363.49,298.76A2.5,2.5 0 1 1 358.49,298.76A2.5,2.5 0 1 1 363.49,298.76Z" style="fill:none;stroke:#F15A60;stroke-width:0.5" />
<path d="M366.67,294.49A2.5,2.5 0 1 1 361.67,294.49A2.5,2.5 0 1 1 366.67,294.49Z" style="fill:none;stroke:#F15A60;stroke-width:0.5" />
<path d="M369.84,290.09A2.5,2.5 0 1 1 364.84,290.09A2.5,2.5 0 1 1 369.84,290.09Z" style="fill:none;stroke:#F15A60;stroke-width:0.5" />
<path d="M373.02,285.55A2.5,2.5 0 1 1 368.02,285.55A2.5,2.5 0 1 1 373.02,285.55Z" style="fill:none;stroke:#F15A60;stroke-width:0.5" />
<path d="M376.2,280.88A2.5,2.5 0 1 1 371.2,280.88A2.5,2.5 0 1 1 376.2,280.88Z" style="fill:none;stroke:#F15A60;stroke-width:0.5" />
<path d="M379.38,276.08A2.5,2.5 0 1 1 374.38,276.08A2.5,2.5 0 1 1 379.38,276.08Z" style="fill:none;stroke:#F15A60;stroke-width:0.5" />
<path d="M382.55,271.15A2.5,2.5 0 1 1 377.55,271.15A2.5,2.5 0 1 1 382.55,271.15Z" style="fill:none;stroke:#F15A60;stroke-width:0.5" />
<path d="M385.73,266.08A2.5,2.5 0 1 1 380.73,266.08A2.5,2.5 0 1 1 385.73,266.08Z" style="fill:none;stroke:#F15A60;stroke-width:0.5" />
<path d="M388.91,260.88A2.5,2.5 0 1 1 383.91,260.88A2.5,2.5 0 1 1 388.91,260.88Z" style="fill:none;stroke:#F15A60;stroke-width:0.5" />
<path d="M392.08,255.55A2.5,2.5 0 1 1 387.08,255.55A2.5,2.5 0 1 1 392.08,255.55Z" style="fill:none;stroke:#F15A60;stroke-width:0.5" />
<path d="M395.26,250.08A2.5,2.5 0 1 1 390.26,250.08A2.5,2.5 0 1 1 395.26,250.08Z" style="fill:none;stroke:#F15A60;stroke-width:0.5" />
<path d="M398.44,244.48A2.5,2.5 0 1 1 393.44,244.48A2.5,2.5 0 1 1 398.44,244.48Z" style="fill:none;stroke:#F15A60;stroke-width:0.5" />
<path d="M401.61,238.75A2.5,2.5 0 1 1 396.61,238.75A2.5,2.5 0 1 1 401.61,238.75Z" style="fill:none;stroke:#F15A60;stroke-width:0.5" />
<path d="M404.79,232.88A2.5,2.5 0 1 1 399.79,232.88A2.5,2.5 0 1 1 404.79,232.88Z" style="fill:none;stroke:#F15A60;stroke-width:0.5" />
<path d="M407.97,226.89A2.5,2.5 0 1 1 402.97,226.89A2.5,2.5 0 1 1 407.97,226.89Z" style="fill:none;stroke:#F15A60;stroke-width:0.5" />
<path d="M411.15,220.75A2.5,2.5 0 1 1 406.15,220.75A2.5,2.5 0 1 1 411.15,220.75Z" style="fill:none;stroke:#F15A60;stroke-width:0.5" />
<path d="M414.32,214.49A2.5,2.5 0 1 1 409.32,214.49A2.5,2.5 0 1 1 414.32,214.49Z" style="fill:none;stroke:#F15A60;stroke-width:0.5" />
<path d="M417.5,208.09A2.5,2.5 0 1 1 412.5,208.09A2.5,2.5 0 1 1 417.5,208.09Z" style="fill:none;stroke:#F15A60;stroke-width:0.5" />
<path d="M420.68,201.56A2.5,2.5 0 1 1 415.68,201.56A2.5,2.5 0 1 1 420.68,201.56Z" style="fill:none;stroke:#F15A60;stroke-width:0.5" />
<path d="M423.85,194.9A2.5,2.5 0 1 1 418.85,194.9A2.5,2.5 0 1 1 423.85,194.9Z" style="fill:none;stroke:#F15A60;stroke-width:0.5" />
<path d="M427.03,188.1A2.5,2.5 0 1 1 422.03,188.1A2.5,2.5 0 1 1 427.03,188.1Z" style="fill:none;stroke:#F15A60;stroke-width:0.5" />
<path d="M430.21,181.17A2.5,2.5 0 1 1 425.21,181.17A2.5,2.5 0 1 1 430.21,181.17Z" style="fill:none;stroke:#F15A60;stroke-width:0.5" />
<path d="M433.39,174.11A2.5,2.5 0 1 1 428.39,174.11A2.5,2.5 0 1 1 433.39,174.11Z" style="fill:none;stroke:#F15A60;stroke-width:0.5" />
<path d="M436.56,166.91A2.5,2.5 0 1 1 431.56,166.91A2.5,2.5 0 1 1 436.56,166.91Z" style="fill:none;stroke:#F15A60;stroke-width:0.5" />
<path d="M439.74,159.58A2.5,2.5 0 1 1 434.74,159.58A2.5,2.5 0 1 1 439.74,159.58Z" style="fill:none;stroke:#F15A60;stroke-width:0.5" />
<path d="M442.92,152.12A2.5,2.5 0 1 1 437.92,152.12A2.5,2.5 0 1 1 442.92,152.12Z" style="fill:none;stroke:#F15A60;stroke-width:0.5" />
<path d="M446.09,144.52A2.5,2.5 0 1 1 441.09,144.52A2.5,2.5 0 1 1 446.09,144.52Z" style="fill:none;stroke:#F15A60;stroke-width:0.5" />
<path d="M449.27,136.79A2.5,2.5 0 1 1 444.27,136.79A2.5,2.5 0 1 1 449.27,136.79Z" style="fill:none;stroke:#F15A60;stroke-width:0.5" />
<path d="M452.45,128.93A2.5,2.5 0 1 1 447.45,128.93A2.5,2.5 0 1 1 452.45,128.93Z" style="fill:none;stroke:#F15A60;stroke-width:0.5" />
<path d="M455.63,120.93A2.5,2.5 0 1 1 450.63,120.93A2.5,2.5 0 1 1 455.63,120.93Z" style="fill:none;stroke:#F15A60;stroke-width:0.5" />
<path d="M458.8,112.81A2.5,2.5 0 1 1 453.8,112.81A2.5,2.5 0 1 1 458.8,112.81Z" style="fill:none;stroke:#F15A60;stroke-width:0.5" />
<path d="M461.98,104.55A2.5,2.5 0 1 1 456.98,104.55A2.5,2.5 0 1 1 461.98,104.55Z" style="fill:none;stroke:#F15A60;stroke-width:0.5" />
<path d="M465.16,96.151A2.5,2.5 0 1 1 460.16,96.151A2.5,2.5 0 1 1 465.16,96.151Z" style="fill:none;stroke:#F15A60;stroke-width:0.5" />
<path d="M468.33,87.624A2.5,2.5 0 1 1 463.33,87.624A2.5,2.5 0 1 1 468.33,87.624Z" style="fill:none;stroke:#F15A60;stroke-width:0.5" />
<path d="M471.51,78.963A2.5,2.5 0 1 1 466.51,78.963A2.5,2.5 0 1 1 471.51,78.963Z" style="fill:none;stroke:#F15A60;stroke-width:0.5" />
<path d="M474.69,70.169A2.5,2.5 0 1 1 469.69,70.169A2.5,2.5 0 1 1 474.69,70.169Z" style="fill:none;stroke:#F15A60;stroke-width:0.5" />
<path d="M477.86,61.243A2.5,2.5 0 1 1 472.86,61.243A2.5,2.5 0 1 1 477.86,61.243Z" style="fill:none;stroke:#F15A60;stroke-width:0.5" />
<path d="M481.04,52.183A2.5,2.5 0 1 1 476.04,52.183A2.5,2.5 0 1 1 481.04,52.183Z" style="fill:none;stroke:#F15A60;stroke-width:0.5" />
<path d="M484.22,42.99A2.5,2.5 0 1 1 479.22,42.99A2.5,2.5 0 1 1 484.22,42.99Z" style="fill:none;stroke:#F15A60;stroke-width:0.5" />
<path d="M487.4,33.664A2.5,2.5 0 1 1 482.4,33.664A2.5,2.5 0 1 1 487.4,33.664Z" style="fill:none;stroke:#F15A60;stroke-width:0.5" />
</g>
</svg>
