<?xml version="1.0"?>
<!-- Generated by SVGo and Plotinum VG -->
<svg width="720pt" height="720pt" viewBox="0 0 720 720"
	xmlns="http://www.w3.org/2000/svg"
	xmlns:xlink="http://www.w3.org/1999/xlink">
<g transform="scale(1, -1) translate(0, -720)">
<path d="M0,0L720,0L720,720L0,720Z" style="fill:#FFFFFF" />
<text x="337.34" y="-708.45" transform="scale(1, -1)"
	style="font-family:Times;font-weight:normal;font-style:normal;font-size:12px">Parabolic</text>
<text x="380.25" y="-3.8613" transform="scale(1, -1)"
	style="font-family:Times;font-weight:normal;font-style:normal;font-size:12px">X</text>
<text x="46.666" y="-15.602" transform="scale(1, -1)"
	style="font-family:Times;font-weight:normal;font-style:normal;font-size:10px">0</text>
<text x="253.7" y="-15.602" transform="scale(1, -1)"
	style="font-family:Times;font-weight:normal;font-style:normal;font-size:10px">3</text>
<text x="460.73" y="-15.602" transform="scale(1, -1)"
	style="font-family:Times;font-weight:normal;font-style:normal;font-size:10px">6</text>
<text x="667.76" y="-15.602" transform="scale(1, -1)"
	style="font-family:Times;font-weight:normal;font-style:normal;font-size:10px">9</text>
<path d="M49.166,25.23L49.166,33.23" style="fill:none;stroke:#000000;stroke-width:0.5" />
<path d="M256.2,25.23L256.2,33.23" style="fill:none;stroke:#000000;stroke-width:0.5" />
<path d="M463.23,25.23L463.23,33.23" style="fill:none;stroke:#000000;stroke-width:0.5" />
<path d="M670.26,25.23L670.26,33.23" style="fill:none;stroke:#000000;stroke-width:0.5" />
<path d="M118.18,29.23L118.18,33.23" style="fill:none;stroke:#000000;stroke-width:0.5" />
<path d="M187.19,29.23L187.19,33.23" style="fill:none;stroke:#000000;stroke-width:0.5" />
<path d="M325.21,29.23L325.21,33.23" style="fill:none;stroke:#000000;stroke-width:0.5" />
<path d="M394.22,29.23L394.22,33.23" style="fill:none;stroke:#000000;stroke-width:0.5" />
<path d="M532.24,29.23L532.24,33.23" style="fill:none;stroke:#000000;stroke-width:0.5" />
<path d="M601.25,29.23L601.25,33.23" style="fill:none;stroke:#000000;stroke-width:0.5" />
<path d="M49.166,33.23L720,33.23" style="fill:none;stroke:#000000;stroke-width:0.5" />
<g transform="rotate(90)">
<text x="367.2" y="11.555" transform="scale(1, -1)"
	style="font-family:Times;font-weight:normal;font-style:normal;font-size:12px">Y</text>
</g>
<text x="15.416" y="-33.759" transform="scale(1, -1)"
	style="font-family:Times;font-weight:normal;font-style:normal;font-size:10px">0.00</text>
<text x="15.416" y="-251.35" transform="scale(1, -1)"
	style="font-family:Times;font-weight:normal;font-style:normal;font-size:10px">2.50</text>
<text x="15.416" y="-468.95" transform="scale(1, -1)"
	style="font-family:Times;font-weight:normal;font-style:normal;font-size:10px">5.00</text>
<text x="15.416" y="-686.54" transform="scale(1, -1)"
	style="font-family:Times;font-weight:normal;font-style:normal;font-size:10px">7.50</text>
<path d="M35.416,38.48L43.416,38.48" style="fill:none;stroke:#000000;stroke-width:0.5" />
<path d="M35.416,256.07L43.416,256.07" style="fill:none;stroke:#000000;stroke-width:0.5" />
<path d="M35.416,473.67L43.416,473.67" style="fill:none;stroke:#000000;stroke-width:0.5" />
<path d="M35.416,691.26L43.416,691.26" style="fill:none;stroke:#000000;stroke-width:0.5" />
<path d="M39.416,81.999L43.416,81.999" style="fill:none;stroke:#000000;stroke-width:0.5" />
<path d="M39.416,125.52L43.416,125.52" style="fill:none;stroke:#000000;stroke-width:0.5" />
<path d="M39.416,169.04L43.416,169.04" style="fill:none;stroke:#000000;stroke-width:0.5" />
<path d="M39.416,212.56L43.416,212.56" style="fill:none;stroke:#000000;stroke-width:0.5" />
<path d="M39.416,299.59L43.416,299.59" style="fill:none;stroke:#000000;stroke-width:0.5" />
<path d="M39.416,343.11L43.416,343.11" style="fill:none;stroke:#000000;stroke-width:0.5" />
<path d="M39.416,386.63L43.416,386.63" style="fill:none;stroke:#000000;stroke-width:0.5" />
<path d="M39.416,430.15L43.416,430.15" style="fill:none;stroke:#000000;stroke-width:0.5" />
<path d="M39.416,517.19L43.416,517.19" style="fill:none;stroke:#000000;stroke-width:0.5" />
<path d="M39.416,560.71L43.416,560.71" style="fill:none;stroke:#000000;stroke-width:0.5" />
<path d="M39.416,604.22L43.416,604.22" style="fill:none;stroke:#000000;stroke-width:0.5" />
<path d="M39.416,647.74L43.416,647.74" style="fill:none;stroke:#000000;stroke-width:0.5" />
<path d="M43.416,38.48L43.416,704.58" style="fill:none;stroke:#000000;stroke-width:0.5" />
<path d="M49.166,38.48L62.857,67.716L76.547,95.608L90.237,122.16L103.93,147.37L117.62,171.23L131.31,193.75L145,214.93L158.69,234.77L172.38,253.26L186.07,270.41L199.76,286.22L213.45,300.68L227.14,313.81L240.83,325.58L254.52,336.02L268.21,345.12L281.9,352.87L295.59,359.28L309.29,364.34L322.98,368.06L336.67,370.44L350.36,371.48L364.05,371.18L377.74,369.53L391.43,366.54L405.12,362.21L418.81,356.53L432.5,349.51L446.19,341.15L459.88,331.44L473.57,320.4L487.26,308.01L500.95,294.27L514.64,279.2L528.33,262.78L542.02,245.02L555.71,225.92L569.4,205.47L583.1,183.68L596.79,160.55L610.48,136.07L624.17,110.26L637.86,83.096L651.55,54.593L658.94,38.48" style="fill:none;stroke:#0000FF" />
</g>
</svg>
