<?xml version="1.0"?>
<!-- Generated by SVGo and Plotinum VG -->
<svg width="720pt" height="720pt" viewBox="0 0 720 720"
	xmlns="http://www.w3.org/2000/svg"
	xmlns:xlink="http://www.w3.org/1999/xlink">
<g transform="scale(1, -1) translate(0, -720)">
<path d="M0,0L720,0L720,720L0,720Z" style="fill:#FFFFFF" />
<text x="337.34" y="-708.45" transform="scale(1, -1)"
	style="font-family:Times;font-weight:normal;font-style:normal;font-size:12px">Parabolic</text>
<text x="31.25" y="-0.18555" transform="scale(1, -1)"
	style="font-family:Times;font-weight:normal;font-style:normal;font-size:10px">0</text>
<text x="243.04" y="-0.18555" transform="scale(1, -1)"
	style="font-family:Times;font-weight:normal;font-style:normal;font-size:10px">3</text>
<text x="454.83" y="-0.18555" transform="scale(1, -1)"
	style="font-family:Times;font-weight:normal;font-style:normal;font-size:10px">6</text>
<text x="666.62" y="-0.18555" transform="scale(1, -1)"
	style="font-family:Times;font-weight:normal;font-style:normal;font-size:10px">9</text>
<path d="M33.75,9.8145L33.75,17.814" style="fill:none;stroke:#000000;stroke-width:0.5" />
<path d="M245.54,9.8145L245.54,17.814" style="fill:none;stroke:#000000;stroke-width:0.5" />
<path d="M457.33,9.8145L457.33,17.814" style="fill:none;stroke:#000000;stroke-width:0.5" />
<path d="M669.12,9.8145L669.12,17.814" style="fill:none;stroke:#000000;stroke-width:0.5" />
<path d="M104.35,13.814L104.35,17.814" style="fill:none;stroke:#000000;stroke-width:0.5" />
<path d="M174.94,13.814L174.94,17.814" style="fill:none;stroke:#000000;stroke-width:0.5" />
<path d="M316.14,13.814L316.14,17.814" style="fill:none;stroke:#000000;stroke-width:0.5" />
<path d="M386.73,13.814L386.73,17.814" style="fill:none;stroke:#000000;stroke-width:0.5" />
<path d="M527.93,13.814L527.93,17.814" style="fill:none;stroke:#000000;stroke-width:0.5" />
<path d="M598.52,13.814L598.52,17.814" style="fill:none;stroke:#000000;stroke-width:0.5" />
<path d="M33.75,17.814L720,17.814" style="fill:none;stroke:#000000;stroke-width:0.5" />
<text x="0" y="-18.343" transform="scale(1, -1)"
	style="font-family:Times;font-weight:normal;font-style:normal;font-size:10px">0.00</text>
<text x="0" y="-315.18" transform="scale(1, -1)"
	style="font-family:Times;font-weight:normal;font-style:normal;font-size:10px">2.50</text>
<text x="0" y="-612.02" transform="scale(1, -1)"
	style="font-family:Times;font-weight:normal;font-style:normal;font-size:10px">5.00</text>
<path d="M20,23.064L28,23.064" style="fill:none;stroke:#000000;stroke-width:0.5" />
<path d="M20,319.9L28,319.9" style="fill:none;stroke:#000000;stroke-width:0.5" />
<path d="M20,616.74L28,616.74" style="fill:none;stroke:#000000;stroke-width:0.5" />
<path d="M24,82.432L28,82.432" style="fill:none;stroke:#000000;stroke-width:0.5" />
<path d="M24,141.8L28,141.8" style="fill:none;stroke:#000000;stroke-width:0.5" />
<path d="M24,201.17L28,201.17" style="fill:none;stroke:#000000;stroke-width:0.5" />
<path d="M24,260.54L28,260.54" style="fill:none;stroke:#000000;stroke-width:0.5" />
<path d="M24,379.27L28,379.27" style="fill:none;stroke:#000000;stroke-width:0.5" />
<path d="M24,438.64L28,438.64" style="fill:none;stroke:#000000;stroke-width:0.5" />
<path d="M24,498.01L28,498.01" style="fill:none;stroke:#000000;stroke-width:0.5" />
<path d="M24,557.38L28,557.38" style="fill:none;stroke:#000000;stroke-width:0.5" />
<path d="M24,676.11L28,676.11" style="fill:none;stroke:#000000;stroke-width:0.5" />
<path d="M28,23.064L28,704.58" style="fill:none;stroke:#000000;stroke-width:0.5" />
<path d="M33.75,23.064L47.755,62.947L61.76,101L75.765,137.22L89.77,171.6L103.78,204.16L117.78,234.88L131.79,263.78L145.79,290.84L159.8,316.06L173.8,339.46L187.81,361.03L201.81,380.76L215.82,398.66L229.82,414.73L243.83,428.97L257.83,441.37L271.84,451.95L285.84,460.69L299.85,467.6L313.85,472.68L327.86,475.93L341.86,477.34L355.87,476.93L369.87,474.68L383.88,470.6L397.88,464.69L411.89,456.94L425.89,447.37L439.9,435.96L453.9,422.72L467.91,407.65L481.91,390.75L495.92,372.02L509.92,351.45L523.93,329.05L537.93,304.82L551.94,278.76L565.94,250.87L579.95,221.15L593.95,189.59L607.96,156.2L621.96,120.98L635.97,83.929L649.97,45.046L657.54,23.064" style="fill:none;stroke:#0000FF" />
<path d="M33.75,23.064L47.755,140.84L61.76,258.61L75.765,376.39L89.77,494.16L103.78,611.94L114.79,704.58" style="fill:none;stroke:#00FF00;stroke-width:2;stroke-dasharray:2,2" />
<path d="M33.75,23.064L47.755,204.16L61.76,339.46L75.765,428.97L89.77,472.68L103.78,470.6L117.78,422.72L131.79,329.05L145.79,189.59L158.38,23.064" style="fill:none;stroke:#FF0000;stroke-width:4;stroke-dasharray:4,5" />
<path d="M684,52.508L720,52.508" style="fill:none;stroke:#0000FF" />
<text x="654.33" y="-46.842" transform="scale(1, -1)"
	style="font-family:Times;font-weight:normal;font-style:normal;font-size:12px">Fx(y)</text>
<path d="M684,40.73L720,40.73" style="fill:none;stroke:#00FF00;stroke-width:2;stroke-dasharray:2,2" />
<text x="657" y="-35.064" transform="scale(1, -1)"
	style="font-family:Times;font-weight:normal;font-style:normal;font-size:12px">Fx(t)</text>
<path d="M684,28.953L720,28.953" style="fill:none;stroke:#FF0000;stroke-width:4;stroke-dasharray:4,5" />
<text x="657" y="-23.287" transform="scale(1, -1)"
	style="font-family:Times;font-weight:normal;font-style:normal;font-size:12px">Fy(t)</text>
</g>
</svg>
