<?xml version="1.0"?>
<!-- Generated by SVGo and Plotinum VG -->
<svg width="720pt" height="720pt" viewBox="0 0 720 720"
	xmlns="http://www.w3.org/2000/svg"
	xmlns:xlink="http://www.w3.org/1999/xlink">
<g transform="scale(1, -1) translate(0, -720)">
<path d="M0,0L720,0L720,720L0,720Z" style="fill:#FFFFFF" />
<text x="337.34" y="-708.45" transform="scale(1, -1)"
	style="font-family:Times;font-weight:normal;font-style:normal;font-size:12px">Parabolic</text>
<text x="159.42" y="-0.18555" transform="scale(1, -1)"
	style="font-family:Times;font-weight:normal;font-style:normal;font-size:10px">-300</text>
<text x="665.5" y="-0.18555" transform="scale(1, -1)"
	style="font-family:Times;font-weight:normal;font-style:normal;font-size:10px">0</text>
<path d="M168.59,9.8145L168.59,17.814" style="fill:none;stroke:#000000;stroke-width:0.5" />
<path d="M668,9.8145L668,17.814" style="fill:none;stroke:#000000;stroke-width:0.5" />
<path d="M335.06,13.814L335.06,17.814" style="fill:none;stroke:#000000;stroke-width:0.5" />
<path d="M501.53,13.814L501.53,17.814" style="fill:none;stroke:#000000;stroke-width:0.5" />
<path d="M31.25,17.814L720,17.814" style="fill:none;stroke:#000000;stroke-width:0.5" />
<text x="10" y="-20.843" transform="scale(1, -1)"
	style="font-family:Times;font-weight:normal;font-style:normal;font-size:10px">0</text>
<text x="5" y="-304.77" transform="scale(1, -1)"
	style="font-family:Times;font-weight:normal;font-style:normal;font-size:10px">80</text>
<text x="0" y="-588.69" transform="scale(1, -1)"
	style="font-family:Times;font-weight:normal;font-style:normal;font-size:10px">160</text>
<path d="M17.5,25.564L25.5,25.564" style="fill:none;stroke:#000000;stroke-width:0.5" />
<path d="M17.5,309.49L25.5,309.49" style="fill:none;stroke:#000000;stroke-width:0.5" />
<path d="M17.5,593.42L25.5,593.42" style="fill:none;stroke:#000000;stroke-width:0.5" />
<path d="M21.5,167.53L25.5,167.53" style="fill:none;stroke:#000000;stroke-width:0.5" />
<path d="M21.5,451.45L25.5,451.45" style="fill:none;stroke:#000000;stroke-width:0.5" />
<path d="M25.5,25.564L25.5,704.58" style="fill:none;stroke:#000000;stroke-width:0.5" />
<path d="M668,25.564L672.04,40.758L675.82,55.605L679.36,70.103L682.65,84.254L685.69,98.056L688.47,111.51L691.01,124.62L693.3,137.38L695.34,149.79L697.13,161.85L698.67,173.57L699.96,184.94L701,195.96L701.79,206.63L702.33,216.95L702.62,226.93L702.67,236.56L702.46,245.84L702,254.78L701.29,263.36L700.34,271.6L699.13,279.49L697.67,287.03L695.97,294.23L694.01,301.07L691.8,307.57L689.35,313.72L686.64,319.53L683.69,324.98L680.48,330.09L677.03,334.85L673.33,339.26L669.37,343.32L665.17,347.04L660.72,350.41L656.01,353.43L651.06,356.1L645.86,358.43L640.41,360.4L634.7,362.03L628.75,363.32L622.55,364.25L616.1,364.84L609.4,365.07L602.45,364.96L595.25,364.51L587.8,363.7L580.1,362.55L572.15,361.05L563.95,359.2L555.51,357L546.81,354.46L537.86,351.57L528.66,348.33L519.22,344.74L509.52,340.8L499.57,336.52L489.38,331.89L478.93,326.91L468.23,321.58L457.29,315.91L446.09,309.89L434.65,303.52L422.95,296.8L411.01,289.73L398.82,282.32L386.37,274.56L373.68,266.45L360.74,257.99L347.54,249.19L334.1,240.03L320.41,230.53L306.47,220.69L292.28,210.49L277.83,199.95L263.14,189.05L248.2,177.82L233.01,166.23L217.57,154.29L201.88,142.01L185.94,129.38L169.75,116.4L153.31,103.07L136.63,89.4L119.69,75.378L102.5,61.009L85.062,46.291L67.374,31.226L60.786,25.564" style="fill:none;stroke:#F15A60" />
<path d="M670.5,25.564A2.5,2.5 0 1 1 665.5,25.564A2.5,2.5 0 1 1 670.5,25.564Z" style="fill:none;stroke:#F15A60;stroke-width:0.5" />
<path d="M674.54,40.758A2.5,2.5 0 1 1 669.54,40.758A2.5,2.5 0 1 1 674.54,40.758Z" style="fill:none;stroke:#F15A60;stroke-width:0.5" />
<path d="M678.32,55.605A2.5,2.5 0 1 1 673.32,55.605A2.5,2.5 0 1 1 678.32,55.605Z" style="fill:none;stroke:#F15A60;stroke-width:0.5" />
<path d="M681.86,70.103A2.5,2.5 0 1 1 676.86,70.103A2.5,2.5 0 1 1 681.86,70.103Z" style="fill:none;stroke:#F15A60;stroke-width:0.5" />
<path d="M685.15,84.254A2.5,2.5 0 1 1 680.15,84.254A2.5,2.5 0 1 1 685.15,84.254Z" style="fill:none;stroke:#F15A60;stroke-width:0.5" />
<path d="M688.19,98.056A2.5,2.5 0 1 1 683.19,98.056A2.5,2.5 0 1 1 688.19,98.056Z" style="fill:none;stroke:#F15A60;stroke-width:0.5" />
<path d="M690.97,111.51A2.5,2.5 0 1 1 685.97,111.51A2.5,2.5 0 1 1 690.97,111.51Z" style="fill:none;stroke:#F15A60;stroke-width:0.5" />
<path d="M693.51,124.62A2.5,2.5 0 1 1 688.51,124.62A2.5,2.5 0 1 1 693.51,124.62Z" style="fill:none;stroke:#F15A60;stroke-width:0.5" />
<path d="M695.8,137.38A2.5,2.5 0 1 1 690.8,137.38A2.5,2.5 0 1 1 695.8,137.38Z" style="fill:none;stroke:#F15A60;stroke-width:0.5" />
<path d="M697.84,149.79A2.5,2.5 0 1 1 692.84,149.79A2.5,2.5 0 1 1 697.84,149.79Z" style="fill:none;stroke:#F15A60;stroke-width:0.5" />
<path d="M699.63,161.85A2.5,2.5 0 1 1 694.63,161.85A2.5,2.5 0 1 1 699.63,161.85Z" style="fill:none;stroke:#F15A60;stroke-width:0.5" />
<path d="M701.17,173.57A2.5,2.5 0 1 1 696.17,173.57A2.5,2.5 0 1 1 701.17,173.57Z" style="fill:none;stroke:#F15A60;stroke-width:0.5" />
<path d="M702.46,184.94A2.5,2.5 0 1 1 697.46,184.94A2.5,2.5 0 1 1 702.46,184.94Z" style="fill:none;stroke:#F15A60;stroke-width:0.5" />
<path d="M703.5,195.96A2.5,2.5 0 1 1 698.5,195.96A2.5,2.5 0 1 1 703.5,195.96Z" style="fill:none;stroke:#F15A60;stroke-width:0.5" />
<path d="M704.29,206.63A2.5,2.5 0 1 1 699.29,206.63A2.5,2.5 0 1 1 704.29,206.63Z" style="fill:none;stroke:#F15A60;stroke-width:0.5" />
<path d="M704.83,216.95A2.5,2.5 0 1 1 699.83,216.95A2.5,2.5 0 1 1 704.83,216.95Z" style="fill:none;stroke:#F15A60;stroke-width:0.5" />
<path d="M705.12,226.93A2.5,2.5 0 1 1 700.12,226.93A2.5,2.5 0 1 1 705.12,226.93Z" style="fill:none;stroke:#F15A60;stroke-width:0.5" />
<path d="M705.17,236.56A2.5,2.5 0 1 1 700.17,236.56A2.5,2.5 0 1 1 705.17,236.56Z" style="fill:none;stroke:#F15A60;stroke-width:0.5" />
<path d="M704.96,245.84A2.5,2.5 0 1 1 699.96,245.84A2.5,2.5 0 1 1 704.96,245.84Z" style="fill:none;stroke:#F15A60;stroke-width:0.5" />
<path d="M704.5,254.78A2.5,2.5 0 1 1 699.5,254.78A2.5,2.5 0 1 1 704.5,254.78Z" style="fill:none;stroke:#F15A60;stroke-width:0.5" />
<path d="M703.79,263.36A2.5,2.5 0 1 1 698.79,263.36A2.5,2.5 0 1 1 703.79,263.36Z" style="fill:none;stroke:#F15A60;stroke-width:0.5" />
<path d="M702.84,271.6A2.5,2.5 0 1 1 697.84,271.6A2.5,2.5 0 1 1 702.84,271.6Z" style="fill:none;stroke:#F15A60;stroke-width:0.5" />
<path d="M701.63,279.49A2.5,2.5 0 1 1 696.63,279.49A2.5,2.5 0 1 1 701.63,279.49Z" style="fill:none;stroke:#F15A60;stroke-width:0.5" />
<path d="M700.17,287.03A2.5,2.5 0 1 1 695.17,287.03A2.5,2.5 0 1 1 700.17,287.03Z" style="fill:none;stroke:#F15A60;stroke-width:0.5" />
<path d="M698.47,294.23A2.5,2.5 0 1 1 693.47,294.23A2.5,2.5 0 1 1 698.47,294.23Z" style="fill:none;stroke:#F15A60;stroke-width:0.5" />
<path d="M696.51,301.07A2.5,2.5 0 1 1 691.51,301.07A2.5,2.5 0 1 1 696.51,301.07Z" style="fill:none;stroke:#F15A60;stroke-width:0.5" />
<path d="M694.3,307.57A2.5,2.5 0 1 1 689.3,307.57A2.5,2.5 0 1 1 694.3,307.57Z" style="fill:none;stroke:#F15A60;stroke-width:0.5" />
<path d="M691.85,313.72A2.5,2.5 0 1 1 686.85,313.72A2.5,2.5 0 1 1 691.85,313.72Z" style="fill:none;stroke:#F15A60;stroke-width:0.5" />
<path d="M689.14,319.53A2.5,2.5 0 1 1 684.14,319.53A2.5,2.5 0 1 1 689.14,319.53Z" style="fill:none;stroke:#F15A60;stroke-width:0.5" />
<path d="M686.19,324.98A2.5,2.5 0 1 1 681.19,324.98A2.5,2.5 0 1 1 686.19,324.98Z" style="fill:none;stroke:#F15A60;stroke-width:0.5" />
<path d="M682.98,330.09A2.5,2.5 0 1 1 677.98,330.09A2.5,2.5 0 1 1 682.98,330.09Z" style="fill:none;stroke:#F15A60;stroke-width:0.5" />
<path d="M679.53,334.85A2.5,2.5 0 1 1 674.53,334.85A2.5,2.5 0 1 1 679.53,334.85Z" style="fill:none;stroke:#F15A60;stroke-width:0.5" />
<path d="M675.83,339.26A2.5,2.5 0 1 1 670.83,339.26A2.5,2.5 0 1 1 675.83,339.26Z" style="fill:none;stroke:#F15A60;stroke-width:0.5" />
<path d="M671.87,343.32A2.5,2.5 0 1 1 666.87,343.32A2.5,2.5 0 1 1 671.87,343.32Z" style="fill:none;stroke:#F15A60;stroke-width:0.5" />
<path d="M667.67,347.04A2.5,2.5 0 1 1 662.67,347.04A2.5,2.5 0 1 1 667.67,347.04Z" style="fill:none;stroke:#F15A60;stroke-width:0.5" />
<path d="M663.22,350.41A2.5,2.5 0 1 1 658.22,350.41A2.5,2.5 0 1 1 663.22,350.41Z" style="fill:none;stroke:#F15A60;stroke-width:0.5" />
<path d="M658.51,353.43A2.5,2.5 0 1 1 653.51,353.43A2.5,2.5 0 1 1 658.51,353.43Z" style="fill:none;stroke:#F15A60;stroke-width:0.5" />
<path d="M653.56,356.1A2.5,2.5 0 1 1 648.56,356.1A2.5,2.5 0 1 1 653.56,356.1Z" style="fill:none;stroke:#F15A60;stroke-width:0.5" />
<path d="M648.36,358.43A2.5,2.5 0 1 1 643.36,358.43A2.5,2.5 0 1 1 648.36,358.43Z" style="fill:none;stroke:#F15A60;stroke-width:0.5" />
<path d="M642.91,360.4A2.5,2.5 0 1 1 637.91,360.4A2.5,2.5 0 1 1 642.91,360.4Z" style="fill:none;stroke:#F15A60;stroke-width:0.5" />
<path d="M637.2,362.03A2.5,2.5 0 1 1 632.2,362.03A2.5,2.5 0 1 1 637.2,362.03Z" style="fill:none;stroke:#F15A60;stroke-width:0.5" />
<path d="M631.25,363.32A2.5,2.5 0 1 1 626.25,363.32A2.5,2.5 0 1 1 631.25,363.32Z" style="fill:none;stroke:#F15A60;stroke-width:0.5" />
<path d="M625.05,364.25A2.5,2.5 0 1 1 620.05,364.25A2.5,2.5 0 1 1 625.05,364.25Z" style="fill:none;stroke:#F15A60;stroke-width:0.5" />
<path d="M618.6,364.84A2.5,2.5 0 1 1 613.6,364.84A2.5,2.5 0 1 1 618.6,364.84Z" style="fill:none;stroke:#F15A60;stroke-width:0.5" />
<path d="M611.9,365.07A2.5,2.5 0 1 1 606.9,365.07A2.5,2.5 0 1 1 611.9,365.07Z" style="fill:none;stroke:#F15A60;stroke-width:0.5" />
<path d="M604.95,364.96A2.5,2.5 0 1 1 599.95,364.96A2.5,2.5 0 1 1 604.95,364.96Z" style="fill:none;stroke:#F15A60;stroke-width:0.5" />
<path d="M597.75,364.51A2.5,2.5 0 1 1 592.75,364.51A2.5,2.5 0 1 1 597.75,364.51Z" style="fill:none;stroke:#F15A60;stroke-width:0.5" />
<path d="M590.3,363.7A2.5,2.5 0 1 1 585.3,363.7A2.5,2.5 0 1 1 590.3,363.7Z" style="fill:none;stroke:#F15A60;stroke-width:0.5" />
<path d="M582.6,362.55A2.5,2.5 0 1 1 577.6,362.55A2.5,2.5 0 1 1 582.6,362.55Z" style="fill:none;stroke:#F15A60;stroke-width:0.5" />
<path d="M574.65,361.05A2.5,2.5 0 1 1 569.65,361.05A2.5,2.5 0 1 1 574.65,361.05Z" style="fill:none;stroke:#F15A60;stroke-width:0.5" />
<path d="M566.45,359.2A2.5,2.5 0 1 1 561.45,359.2A2.5,2.5 0 1 1 566.45,359.2Z" style="fill:none;stroke:#F15A60;stroke-width:0.5" />
<path d="M558.01,357A2.5,2.5 0 1 1 553.01,357A2.5,2.5 0 1 1 558.01,357Z" style="fill:none;stroke:#F15A60;stroke-width:0.5" />
<path d="M549.31,354.46A2.5,2.5 0 1 1 544.31,354.46A2.5,2.5 0 1 1 549.31,354.46Z" style="fill:none;stroke:#F15A60;stroke-width:0.5" />
<path d="M540.36,351.57A2.5,2.5 0 1 1 535.36,351.57A2.5,2.5 0 1 1 540.36,351.57Z" style="fill:none;stroke:#F15A60;stroke-width:0.5" />
<path d="M531.16,348.33A2.5,2.5 0 1 1 526.16,348.33A2.5,2.5 0 1 1 531.16,348.33Z" style="fill:none;stroke:#F15A60;stroke-width:0.5" />
<path d="M521.72,344.74A2.5,2.5 0 1 1 516.72,344.74A2.5,2.5 0 1 1 521.72,344.74Z" style="fill:none;stroke:#F15A60;stroke-width:0.5" />
<path d="M512.02,340.8A2.5,2.5 0 1 1 507.02,340.8A2.5,2.5 0 1 1 512.02,340.8Z" style="fill:none;stroke:#F15A60;stroke-width:0.5" />
<path d="M502.07,336.52A2.5,2.5 0 1 1 497.07,336.52A2.5,2.5 0 1 1 502.07,336.52Z" style="fill:none;stroke:#F15A60;stroke-width:0.5" />
<path d="M491.88,331.89A2.5,2.5 0 1 1 486.88,331.89A2.5,2.5 0 1 1 491.88,331.89Z" style="fill:none;stroke:#F15A60;stroke-width:0.5" />
<path d="M481.43,326.91A2.5,2.5 0 1 1 476.43,326.91A2.5,2.5 0 1 1 481.43,326.91Z" style="fill:none;stroke:#F15A60;stroke-width:0.5" />
<path d="M470.73,321.58A2.5,2.5 0 1 1 465.73,321.58A2.5,2.5 0 1 1 470.73,321.58Z" style="fill:none;stroke:#F15A60;stroke-width:0.5" />
<path d="M459.79,315.91A2.5,2.5 0 1 1 454.79,315.91A2.5,2.5 0 1 1 459.79,315.91Z" style="fill:none;stroke:#F15A60;stroke-width:0.5" />
<path d="M448.59,309.89A2.5,2.5 0 1 1 443.59,309.89A2.5,2.5 0 1 1 448.59,309.89Z" style="fill:none;stroke:#F15A60;stroke-width:0.5" />
<path d="M437.15,303.52A2.5,2.5 0 1 1 432.15,303.52A2.5,2.5 0 1 1 437.15,303.52Z" style="fill:none;stroke:#F15A60;stroke-width:0.5" />
<path d="M425.45,296.8A2.5,2.5 0 1 1 420.45,296.8A2.5,2.5 0 1 1 425.45,296.8Z" style="fill:none;stroke:#F15A60;stroke-width:0.5" />
<path d="M413.51,289.73A2.5,2.5 0 1 1 408.51,289.73A2.5,2.5 0 1 1 413.51,289.73Z" style="fill:none;stroke:#F15A60;stroke-width:0.5" />
<path d="M401.32,282.32A2.5,2.5 0 1 1 396.32,282.32A2.5,2.5 0 1 1 401.32,282.32Z" style="fill:none;stroke:#F15A60;stroke-width:0.5" />
<path d="M388.87,274.56A2.5,2.5 0 1 1 383.87,274.56A2.5,2.5 0 1 1 388.87,274.56Z" style="fill:none;stroke:#F15A60;stroke-width:0.5" />
<path d="M376.18,266.45A2.5,2.5 0 1 1 371.18,266.45A2.5,2.5 0 1 1 376.18,266.45Z" style="fill:none;stroke:#F15A60;stroke-width:0.5" />
<path d="M363.24,257.99A2.5,2.5 0 1 1 358.24,257.99A2.5,2.5 0 1 1 363.24,257.99Z" style="fill:none;stroke:#F15A60;stroke-width:0.5" />
<path d="M350.04,249.19A2.5,2.5 0 1 1 345.04,249.19A2.5,2.5 0 1 1 350.04,249.19Z" style="fill:none;stroke:#F15A60;stroke-width:0.5" />
<path d="M336.6,240.03A2.5,2.5 0 1 1 331.6,240.03A2.5,2.5 0 1 1 336.6,240.03Z" style="fill:none;stroke:#F15A60;stroke-width:0.5" />
<path d="M322.91,230.53A2.5,2.5 0 1 1 317.91,230.53A2.5,2.5 0 1 1 322.91,230.53Z" style="fill:none;stroke:#F15A60;stroke-width:0.5" />
<path d="M308.97,220.69A2.5,2.5 0 1 1 303.97,220.69A2.5,2.5 0 1 1 308.97,220.69Z" style="fill:none;stroke:#F15A60;stroke-width:0.5" />
<path d="M294.78,210.49A2.5,2.5 0 1 1 289.78,210.49A2.5,2.5 0 1 1 294.78,210.49Z" style="fill:none;stroke:#F15A60;stroke-width:0.5" />
<path d="M280.33,199.95A2.5,2.5 0 1 1 275.33,199.95A2.5,2.5 0 1 1 280.33,199.95Z" style="fill:none;stroke:#F15A60;stroke-width:0.5" />
<path d="M265.64,189.05A2.5,2.5 0 1 1 260.64,189.05A2.5,2.5 0 1 1 265.64,189.05Z" style="fill:none;stroke:#F15A60;stroke-width:0.5" />
<path d="M250.7,177.82A2.5,2.5 0 1 1 245.7,177.82A2.5,2.5 0 1 1 250.7,177.82Z" style="fill:none;stroke:#F15A60;stroke-width:0.5" />
<path d="M235.51,166.23A2.5,2.5 0 1 1 230.51,166.23A2.5,2.5 0 1 1 235.51,166.23Z" style="fill:none;stroke:#F15A60;stroke-width:0.5" />
<path d="M220.07,154.29A2.5,2.5 0 1 1 215.07,154.29A2.5,2.5 0 1 1 220.07,154.29Z" style="fill:none;stroke:#F15A60;stroke-width:0.5" />
<path d="M204.38,142.01A2.5,2.5 0 1 1 199.38,142.01A2.5,2.5 0 1 1 204.38,142.01Z" style="fill:none;stroke:#F15A60;stroke-width:0.5" />
<path d="M188.44,129.38A2.5,2.5 0 1 1 183.44,129.38A2.5,2.5 0 1 1 188.44,129.38Z" style="fill:none;stroke:#F15A60;stroke-width:0.5" />
<path d="M172.25,116.4A2.5,2.5 0 1 1 167.25,116.4A2.5,2.5 0 1 1 172.25,116.4Z" style="fill:none;stroke:#F15A60;stroke-width:0.5" />
<path d="M155.81,103.07A2.5,2.5 0 1 1 150.81,103.07A2.5,2.5 0 1 1 155.81,103.07Z" style="fill:none;stroke:#F15A60;stroke-width:0.5" />
<path d="M139.13,89.4A2.5,2.5 0 1 1 134.13,89.4A2.5,2.5 0 1 1 139.13,89.4Z" style="fill:none;stroke:#F15A60;stroke-width:0.5" />
<path d="M122.19,75.378A2.5,2.5 0 1 1 117.19,75.378A2.5,2.5 0 1 1 122.19,75.378Z" style="fill:none;stroke:#F15A60;stroke-width:0.5" />
<path d="M105,61.009A2.5,2.5 0 1 1 99.999,61.009A2.5,2.5 0 1 1 105,61.009Z" style="fill:none;stroke:#F15A60;stroke-width:0.5" />
<path d="M87.562,46.291A2.5,2.5 0 1 1 82.562,46.291A2.5,2.5 0 1 1 87.562,46.291Z" style="fill:none;stroke:#F15A60;stroke-width:0.5" />
<path d="M69.874,31.226A2.5,2.5 0 1 1 64.874,31.226A2.5,2.5 0 1 1 69.874,31.226Z" style="fill:none;stroke:#F15A60;stroke-width:0.5" />
</g>
</svg>
