<?xml version="1.0"?>
<!-- Generated by SVGo and Plotinum VG -->
<svg width="720pt" height="720pt" viewBox="0 0 720 720"
	xmlns="http://www.w3.org/2000/svg"
	xmlns:xlink="http://www.w3.org/1999/xlink">
<g transform="scale(1, -1) translate(0, -720)">
<path d="M0,0L720,0L720,720L0,720Z" style="fill:#FFFFFF" />
<text x="337.34" y="-708.45" transform="scale(1, -1)"
	style="font-family:Times;font-weight:normal;font-style:normal;font-size:12px">Parabolic</text>
<text x="99.686" y="-0.18555" transform="scale(1, -1)"
	style="font-family:Times;font-weight:normal;font-style:normal;font-size:10px">-30</text>
<text x="370.62" y="-0.18555" transform="scale(1, -1)"
	style="font-family:Times;font-weight:normal;font-style:normal;font-size:10px">0</text>
<text x="634.9" y="-0.18555" transform="scale(1, -1)"
	style="font-family:Times;font-weight:normal;font-style:normal;font-size:10px">30</text>
<path d="M106.35,9.8145L106.35,17.814" style="fill:none;stroke:#000000;stroke-width:0.5" />
<path d="M373.12,9.8145L373.12,17.814" style="fill:none;stroke:#000000;stroke-width:0.5" />
<path d="M639.9,9.8145L639.9,17.814" style="fill:none;stroke:#000000;stroke-width:0.5" />
<path d="M195.28,13.814L195.28,17.814" style="fill:none;stroke:#000000;stroke-width:0.5" />
<path d="M284.2,13.814L284.2,17.814" style="fill:none;stroke:#000000;stroke-width:0.5" />
<path d="M462.05,13.814L462.05,17.814" style="fill:none;stroke:#000000;stroke-width:0.5" />
<path d="M550.97,13.814L550.97,17.814" style="fill:none;stroke:#000000;stroke-width:0.5" />
<path d="M26.25,17.814L720,17.814" style="fill:none;stroke:#000000;stroke-width:0.5" />
<text x="5" y="-20.843" transform="scale(1, -1)"
	style="font-family:Times;font-weight:normal;font-style:normal;font-size:10px">0</text>
<text x="5" y="-353.7" transform="scale(1, -1)"
	style="font-family:Times;font-weight:normal;font-style:normal;font-size:10px">5</text>
<text x="0" y="-686.55" transform="scale(1, -1)"
	style="font-family:Times;font-weight:normal;font-style:normal;font-size:10px">10</text>
<path d="M12.5,25.564L20.5,25.564" style="fill:none;stroke:#000000;stroke-width:0.5" />
<path d="M12.5,358.42L20.5,358.42" style="fill:none;stroke:#000000;stroke-width:0.5" />
<path d="M12.5,691.27L20.5,691.27" style="fill:none;stroke:#000000;stroke-width:0.5" />
<path d="M16.5,92.135L20.5,92.135" style="fill:none;stroke:#000000;stroke-width:0.5" />
<path d="M16.5,158.71L20.5,158.71" style="fill:none;stroke:#000000;stroke-width:0.5" />
<path d="M16.5,225.28L20.5,225.28" style="fill:none;stroke:#000000;stroke-width:0.5" />
<path d="M16.5,291.85L20.5,291.85" style="fill:none;stroke:#000000;stroke-width:0.5" />
<path d="M16.5,424.99L20.5,424.99" style="fill:none;stroke:#000000;stroke-width:0.5" />
<path d="M16.5,491.56L20.5,491.56" style="fill:none;stroke:#000000;stroke-width:0.5" />
<path d="M16.5,558.13L20.5,558.13" style="fill:none;stroke:#000000;stroke-width:0.5" />
<path d="M16.5,624.7L20.5,624.7" style="fill:none;stroke:#000000;stroke-width:0.5" />
<path d="M20.5,25.564L20.5,704.58" style="fill:none;stroke:#000000;stroke-width:0.5" />
<path d="M373.12,25.564L388.3,88.873L403.04,145.66L417.33,195.92L431.18,239.66L444.58,276.87L457.54,307.56L470.05,331.72L482.11,349.36L493.74,360.48L504.92,365.07L515.65,363.14L525.94,354.69L535.78,339.71L545.18,318.21L554.14,290.18L562.65,255.63L570.71,214.56L578.34,166.96L585.51,112.84L592.24,52.193L594.74,25.564" style="fill:none;stroke:#F15A60" />
<path d="M375.62,25.564A2.5,2.5 0 1 1 370.62,25.564A2.5,2.5 0 1 1 375.62,25.564Z" style="fill:none;stroke:#F15A60;stroke-width:0.5" />
<path d="M390.8,88.873A2.5,2.5 0 1 1 385.8,88.873A2.5,2.5 0 1 1 390.8,88.873Z" style="fill:none;stroke:#F15A60;stroke-width:0.5" />
<path d="M405.54,145.66A2.5,2.5 0 1 1 400.54,145.66A2.5,2.5 0 1 1 405.54,145.66Z" style="fill:none;stroke:#F15A60;stroke-width:0.5" />
<path d="M419.83,195.92A2.5,2.5 0 1 1 414.83,195.92A2.5,2.5 0 1 1 419.83,195.92Z" style="fill:none;stroke:#F15A60;stroke-width:0.5" />
<path d="M433.68,239.66A2.5,2.5 0 1 1 428.68,239.66A2.5,2.5 0 1 1 433.68,239.66Z" style="fill:none;stroke:#F15A60;stroke-width:0.5" />
<path d="M447.08,276.87A2.5,2.5 0 1 1 442.08,276.87A2.5,2.5 0 1 1 447.08,276.87Z" style="fill:none;stroke:#F15A60;stroke-width:0.5" />
<path d="M460.04,307.56A2.5,2.5 0 1 1 455.04,307.56A2.5,2.5 0 1 1 460.04,307.56Z" style="fill:none;stroke:#F15A60;stroke-width:0.5" />
<path d="M472.55,331.72A2.5,2.5 0 1 1 467.55,331.72A2.5,2.5 0 1 1 472.55,331.72Z" style="fill:none;stroke:#F15A60;stroke-width:0.5" />
<path d="M484.61,349.36A2.5,2.5 0 1 1 479.61,349.36A2.5,2.5 0 1 1 484.61,349.36Z" style="fill:none;stroke:#F15A60;stroke-width:0.5" />
<path d="M496.24,360.48A2.5,2.5 0 1 1 491.24,360.48A2.5,2.5 0 1 1 496.24,360.48Z" style="fill:none;stroke:#F15A60;stroke-width:0.5" />
<path d="M507.42,365.07A2.5,2.5 0 1 1 502.42,365.07A2.5,2.5 0 1 1 507.42,365.07Z" style="fill:none;stroke:#F15A60;stroke-width:0.5" />
<path d="M518.15,363.14A2.5,2.5 0 1 1 513.15,363.14A2.5,2.5 0 1 1 518.15,363.14Z" style="fill:none;stroke:#F15A60;stroke-width:0.5" />
<path d="M528.44,354.69A2.5,2.5 0 1 1 523.44,354.69A2.5,2.5 0 1 1 528.44,354.69Z" style="fill:none;stroke:#F15A60;stroke-width:0.5" />
<path d="M538.28,339.71A2.5,2.5 0 1 1 533.28,339.71A2.5,2.5 0 1 1 538.28,339.71Z" style="fill:none;stroke:#F15A60;stroke-width:0.5" />
<path d="M547.68,318.21A2.5,2.5 0 1 1 542.68,318.21A2.5,2.5 0 1 1 547.68,318.21Z" style="fill:none;stroke:#F15A60;stroke-width:0.5" />
<path d="M556.64,290.18A2.5,2.5 0 1 1 551.64,290.18A2.5,2.5 0 1 1 556.64,290.18Z" style="fill:none;stroke:#F15A60;stroke-width:0.5" />
<path d="M565.15,255.63A2.5,2.5 0 1 1 560.15,255.63A2.5,2.5 0 1 1 565.15,255.63Z" style="fill:none;stroke:#F15A60;stroke-width:0.5" />
<path d="M573.21,214.56A2.5,2.5 0 1 1 568.21,214.56A2.5,2.5 0 1 1 573.21,214.56Z" style="fill:none;stroke:#F15A60;stroke-width:0.5" />
<path d="M580.84,166.96A2.5,2.5 0 1 1 575.84,166.96A2.5,2.5 0 1 1 580.84,166.96Z" style="fill:none;stroke:#F15A60;stroke-width:0.5" />
<path d="M588.01,112.84A2.5,2.5 0 1 1 583.01,112.84A2.5,2.5 0 1 1 588.01,112.84Z" style="fill:none;stroke:#F15A60;stroke-width:0.5" />
<path d="M594.74,52.193A2.5,2.5 0 1 1 589.74,52.193A2.5,2.5 0 1 1 594.74,52.193Z" style="fill:none;stroke:#F15A60;stroke-width:0.5" />
</g>
</svg>
