<?xml version="1.0"?>
<!-- Generated by SVGo and Plotinum VG -->
<svg width="10in" height="10in"
	xmlns="http://www.w3.org/2000/svg"
	xmlns:xlink="http://www.w3.org/1999/xlink">
<g transform="scale(1, -1) translate(0, -900)">
<path d="M0,0L900,0L900,900L0,900Z" style="fill:#FFFFFF" />
<text x="421.68" y="-885.56" transform="scale(1, -1)"
	style="font-family:Times;font-weight:normal;font-style:normal;font-size:12pt">Parabolic</text>
<text x="467.5" y="-4.8267" transform="scale(1, -1)"
	style="font-family:Times;font-weight:normal;font-style:normal;font-size:12pt">X</text>
<text x="42.708" y="-19.502" transform="scale(1, -1)"
	style="font-family:Times;font-weight:normal;font-style:normal;font-size:10pt">0</text>
<text x="306.32" y="-19.502" transform="scale(1, -1)"
	style="font-family:Times;font-weight:normal;font-style:normal;font-size:10pt">3</text>
<text x="569.93" y="-19.502" transform="scale(1, -1)"
	style="font-family:Times;font-weight:normal;font-style:normal;font-size:10pt">6</text>
<text x="833.55" y="-19.502" transform="scale(1, -1)"
	style="font-family:Times;font-weight:normal;font-style:normal;font-size:10pt">9</text>
<path d="M45.833,31.538L45.833,41.538" style="fill:none;stroke:#000000;stroke-width:0.625" />
<path d="M309.45,31.538L309.45,41.538" style="fill:none;stroke:#000000;stroke-width:0.625" />
<path d="M573.06,31.538L573.06,41.538" style="fill:none;stroke:#000000;stroke-width:0.625" />
<path d="M836.67,31.538L836.67,41.538" style="fill:none;stroke:#000000;stroke-width:0.625" />
<path d="M133.7,36.538L133.7,41.538" style="fill:none;stroke:#000000;stroke-width:0.625" />
<path d="M221.57,36.538L221.57,41.538" style="fill:none;stroke:#000000;stroke-width:0.625" />
<path d="M397.32,36.538L397.32,41.538" style="fill:none;stroke:#000000;stroke-width:0.625" />
<path d="M485.19,36.538L485.19,41.538" style="fill:none;stroke:#000000;stroke-width:0.625" />
<path d="M660.93,36.538L660.93,41.538" style="fill:none;stroke:#000000;stroke-width:0.625" />
<path d="M748.8,36.538L748.8,41.538" style="fill:none;stroke:#000000;stroke-width:0.625" />
<path d="M45.833,41.538L900,41.538" style="fill:none;stroke:#000000;stroke-width:0.625" />
<g transform="rotate(90)">
<text x="459" y="14.443" transform="scale(1, -1)"
	style="font-family:Times;font-weight:normal;font-style:normal;font-size:12pt">Y</text>
</g>
<text x="19.27" y="-42.198" transform="scale(1, -1)"
	style="font-family:Times;font-weight:normal;font-style:normal;font-size:10pt">0</text>
<text x="19.27" y="-390.35" transform="scale(1, -1)"
	style="font-family:Times;font-weight:normal;font-style:normal;font-size:10pt">4</text>
<text x="19.27" y="-738.5" transform="scale(1, -1)"
	style="font-family:Times;font-weight:normal;font-style:normal;font-size:10pt">8</text>
<path d="M28.645,48.101L38.645,48.101" style="fill:none;stroke:#000000;stroke-width:0.625" />
<path d="M28.645,396.25L38.645,396.25" style="fill:none;stroke:#000000;stroke-width:0.625" />
<path d="M28.645,744.4L38.645,744.4" style="fill:none;stroke:#000000;stroke-width:0.625" />
<path d="M33.645,135.14L38.645,135.14" style="fill:none;stroke:#000000;stroke-width:0.625" />
<path d="M33.645,222.18L38.645,222.18" style="fill:none;stroke:#000000;stroke-width:0.625" />
<path d="M33.645,309.21L38.645,309.21" style="fill:none;stroke:#000000;stroke-width:0.625" />
<path d="M33.645,483.29L38.645,483.29" style="fill:none;stroke:#000000;stroke-width:0.625" />
<path d="M33.645,570.33L38.645,570.33" style="fill:none;stroke:#000000;stroke-width:0.625" />
<path d="M33.645,657.36L38.645,657.36" style="fill:none;stroke:#000000;stroke-width:0.625" />
<path d="M33.645,831.44L38.645,831.44" style="fill:none;stroke:#000000;stroke-width:0.625" />
<path d="M38.645,48.101L38.645,880.73" style="fill:none;stroke:#000000;stroke-width:0.625" />
<path d="M45.833,48.101L63.265,77.336L80.696,105.23L98.128,131.78L115.56,156.99L132.99,180.85L150.42,203.37L167.86,224.55L185.29,244.39L202.72,262.88L220.15,280.03L237.58,295.84L255.02,310.3L272.45,323.43L289.88,335.2L307.31,345.64L324.74,354.74L342.18,362.49L359.61,368.9L377.04,373.96L394.47,377.68L411.9,380.06L429.34,381.1L446.77,380.8L464.2,379.15L481.63,376.16L499.06,371.83L516.5,366.15L533.93,359.13L551.36,350.77L568.79,341.06L586.22,330.02L603.66,317.63L621.09,303.89L638.52,288.82L655.95,272.4L673.38,254.64L690.82,235.54L708.25,215.09L725.68,193.3L743.11,170.17L760.54,145.69L777.98,119.88L795.41,92.716L812.84,64.214L822.25,48.101" style="fill:none;stroke:#0000FF;stroke-width:1.25" />
</g>
</svg>
