<?xml version="1.0"?>
<!-- Generated by SVGo and Plotinum VG -->
<svg width="720pt" height="720pt" viewBox="0 0 720 720"
	xmlns="http://www.w3.org/2000/svg"
	xmlns:xlink="http://www.w3.org/1999/xlink">
<g transform="scale(1, -1) translate(0, -720)">
<path d="M0,0L720,0L720,720L0,720Z" style="fill:#FFFFFF" />
<text x="337.34" y="-708.45" transform="scale(1, -1)"
	style="font-family:Times;font-weight:normal;font-style:normal;font-size:12px">Parabolic</text>
<text x="31.25" y="-0.18555" transform="scale(1, -1)"
	style="font-family:Times;font-weight:normal;font-style:normal;font-size:10px">0</text>
<text x="337.48" y="-0.18555" transform="scale(1, -1)"
	style="font-family:Times;font-weight:normal;font-style:normal;font-size:10px">500</text>
<text x="646.2" y="-0.18555" transform="scale(1, -1)"
	style="font-family:Times;font-weight:normal;font-style:normal;font-size:10px">1000</text>
<path d="M33.75,9.8145L33.75,17.814" style="fill:none;stroke:#000000;stroke-width:0.5" />
<path d="M344.98,9.8145L344.98,17.814" style="fill:none;stroke:#000000;stroke-width:0.5" />
<path d="M656.2,9.8145L656.2,17.814" style="fill:none;stroke:#000000;stroke-width:0.5" />
<path d="M95.995,13.814L95.995,17.814" style="fill:none;stroke:#000000;stroke-width:0.5" />
<path d="M158.24,13.814L158.24,17.814" style="fill:none;stroke:#000000;stroke-width:0.5" />
<path d="M220.49,13.814L220.49,17.814" style="fill:none;stroke:#000000;stroke-width:0.5" />
<path d="M282.73,13.814L282.73,17.814" style="fill:none;stroke:#000000;stroke-width:0.5" />
<path d="M407.22,13.814L407.22,17.814" style="fill:none;stroke:#000000;stroke-width:0.5" />
<path d="M469.47,13.814L469.47,17.814" style="fill:none;stroke:#000000;stroke-width:0.5" />
<path d="M531.71,13.814L531.71,17.814" style="fill:none;stroke:#000000;stroke-width:0.5" />
<path d="M593.96,13.814L593.96,17.814" style="fill:none;stroke:#000000;stroke-width:0.5" />
<path d="M718.45,13.814L718.45,17.814" style="fill:none;stroke:#000000;stroke-width:0.5" />
<path d="M33.75,17.814L720,17.814" style="fill:none;stroke:#000000;stroke-width:0.5" />
<text x="10" y="-20.843" transform="scale(1, -1)"
	style="font-family:Times;font-weight:normal;font-style:normal;font-size:10px">0</text>
<text x="0" y="-292.46" transform="scale(1, -1)"
	style="font-family:Times;font-weight:normal;font-style:normal;font-size:10px">200</text>
<text x="0" y="-564.08" transform="scale(1, -1)"
	style="font-family:Times;font-weight:normal;font-style:normal;font-size:10px">400</text>
<path d="M17.5,25.564L25.5,25.564" style="fill:none;stroke:#000000;stroke-width:0.5" />
<path d="M17.5,297.18L25.5,297.18" style="fill:none;stroke:#000000;stroke-width:0.5" />
<path d="M17.5,568.8L25.5,568.8" style="fill:none;stroke:#000000;stroke-width:0.5" />
<path d="M21.5,161.37L25.5,161.37" style="fill:none;stroke:#000000;stroke-width:0.5" />
<path d="M21.5,432.99L25.5,432.99" style="fill:none;stroke:#000000;stroke-width:0.5" />
<path d="M25.5,25.564L25.5,704.58" style="fill:none;stroke:#000000;stroke-width:0.5" />
<path d="M33.75,25.564L41.266,35.005L48.719,44.311L56.11,53.485L63.439,62.526L70.706,71.434L77.911,80.208L85.053,88.85L92.133,97.358L99.15,105.73L106.11,113.98L113,122.09L119.83,130.06L126.6,137.9L133.31,145.61L139.95,153.19L146.53,160.63L153.05,167.95L159.51,175.12L165.9,182.17L172.24,189.08L178.51,195.86L184.72,202.5L190.86,209.01L196.95,215.39L202.97,221.64L208.93,227.75L214.83,233.73L220.66,239.58L226.43,245.29L232.14,250.87L237.79,256.32L243.38,261.63L248.9,266.81L254.36,271.86L259.76,276.78L265.1,281.56L270.38,286.21L275.59,290.72L280.74,295.11L285.83,299.35L290.85,303.47L295.82,307.45L300.72,311.3L305.56,315.02L310.33,318.61L315.05,322.06L319.7,325.37L324.29,328.56L328.82,331.61L333.28,334.53L337.69,337.31L342.03,339.97L346.31,342.49L350.53,344.87L354.68,347.13L358.77,349.25L362.8,351.23L366.77,353.09L370.67,354.81L374.52,356.39L378.3,357.85L382.02,359.17L385.67,360.36L389.27,361.41L392.8,362.34L396.27,363.13L399.68,363.78L403.02,364.3L406.31,364.69L409.53,364.95L412.69,365.07L415.78,365.06L418.82,364.92L421.79,364.65L424.7,364.24L427.54,363.7L430.33,363.02L433.05,362.21L435.71,361.27L438.31,360.2L440.85,358.99L443.32,357.65L445.73,356.18L448.08,354.57L450.37,352.83L452.59,350.96L454.76,348.95L456.86,346.81L458.9,344.54L460.87,342.13L462.78,339.6L464.64,336.93L466.43,334.12L468.15,331.18L469.82,328.11L471.42,324.91L472.96,321.57L474.44,318.1L475.85,314.5L477.21,310.76L478.5,306.89L479.73,302.89L480.89,298.76L482,294.49L483.04,290.09L484.02,285.55L484.94,280.88L485.79,276.08L486.59,271.15L487.32,266.08L487.99,260.88L488.59,255.55L489.14,250.08L489.62,244.48L490.04,238.75L490.4,232.88L490.69,226.89L490.92,220.75L491.1,214.49L491.2,208.09L491.25,201.56L491.23,194.9L491.16,188.1L491.02,181.17L490.81,174.11L490.55,166.91L490.22,159.58L489.83,152.12L489.38,144.52L488.87,136.79L488.29,128.93L487.65,120.93L486.95,112.81L486.19,104.55L485.36,96.151L484.47,87.624L483.53,78.963L482.51,70.169L481.44,61.243L480.3,52.183L479.1,42.99L477.84,33.664L476.71,25.564" style="fill:none;stroke:#F15A60" />
<path d="M36.25,25.564A2.5,2.5 0 1 1 31.25,25.564A2.5,2.5 0 1 1 36.25,25.564Z" style="fill:none;stroke:#F15A60;stroke-width:0.5" />
<path d="M43.766,35.005A2.5,2.5 0 1 1 38.766,35.005A2.5,2.5 0 1 1 43.766,35.005Z" style="fill:none;stroke:#F15A60;stroke-width:0.5" />
<path d="M51.219,44.311A2.5,2.5 0 1 1 46.219,44.311A2.5,2.5 0 1 1 51.219,44.311Z" style="fill:none;stroke:#F15A60;stroke-width:0.5" />
<path d="M58.61,53.485A2.5,2.5 0 1 1 53.61,53.485A2.5,2.5 0 1 1 58.61,53.485Z" style="fill:none;stroke:#F15A60;stroke-width:0.5" />
<path d="M65.939,62.526A2.5,2.5 0 1 1 60.939,62.526A2.5,2.5 0 1 1 65.939,62.526Z" style="fill:none;stroke:#F15A60;stroke-width:0.5" />
<path d="M73.206,71.434A2.5,2.5 0 1 1 68.206,71.434A2.5,2.5 0 1 1 73.206,71.434Z" style="fill:none;stroke:#F15A60;stroke-width:0.5" />
<path d="M80.411,80.208A2.5,2.5 0 1 1 75.411,80.208A2.5,2.5 0 1 1 80.411,80.208Z" style="fill:none;stroke:#F15A60;stroke-width:0.5" />
<path d="M87.553,88.85A2.5,2.5 0 1 1 82.553,88.85A2.5,2.5 0 1 1 87.553,88.85Z" style="fill:none;stroke:#F15A60;stroke-width:0.5" />
<path d="M94.633,97.358A2.5,2.5 0 1 1 89.633,97.358A2.5,2.5 0 1 1 94.633,97.358Z" style="fill:none;stroke:#F15A60;stroke-width:0.5" />
<path d="M101.65,105.73A2.5,2.5 0 1 1 96.65,105.73A2.5,2.5 0 1 1 101.65,105.73Z" style="fill:none;stroke:#F15A60;stroke-width:0.5" />
<path d="M108.61,113.98A2.5,2.5 0 1 1 103.61,113.98A2.5,2.5 0 1 1 108.61,113.98Z" style="fill:none;stroke:#F15A60;stroke-width:0.5" />
<path d="M115.5,122.09A2.5,2.5 0 1 1 110.5,122.09A2.5,2.5 0 1 1 115.5,122.09Z" style="fill:none;stroke:#F15A60;stroke-width:0.5" />
<path d="M122.33,130.06A2.5,2.5 0 1 1 117.33,130.06A2.5,2.5 0 1 1 122.33,130.06Z" style="fill:none;stroke:#F15A60;stroke-width:0.5" />
<path d="M129.1,137.9A2.5,2.5 0 1 1 124.1,137.9A2.5,2.5 0 1 1 129.1,137.9Z" style="fill:none;stroke:#F15A60;stroke-width:0.5" />
<path d="M135.81,145.61A2.5,2.5 0 1 1 130.81,145.61A2.5,2.5 0 1 1 135.81,145.61Z" style="fill:none;stroke:#F15A60;stroke-width:0.5" />
<path d="M142.45,153.19A2.5,2.5 0 1 1 137.45,153.19A2.5,2.5 0 1 1 142.45,153.19Z" style="fill:none;stroke:#F15A60;stroke-width:0.5" />
<path d="M149.03,160.63A2.5,2.5 0 1 1 144.03,160.63A2.5,2.5 0 1 1 149.03,160.63Z" style="fill:none;stroke:#F15A60;stroke-width:0.5" />
<path d="M155.55,167.95A2.5,2.5 0 1 1 150.55,167.95A2.5,2.5 0 1 1 155.55,167.95Z" style="fill:none;stroke:#F15A60;stroke-width:0.5" />
<path d="M162.01,175.12A2.5,2.5 0 1 1 157.01,175.12A2.5,2.5 0 1 1 162.01,175.12Z" style="fill:none;stroke:#F15A60;stroke-width:0.5" />
<path d="M168.4,182.17A2.5,2.5 0 1 1 163.4,182.17A2.5,2.5 0 1 1 168.4,182.17Z" style="fill:none;stroke:#F15A60;stroke-width:0.5" />
<path d="M174.74,189.08A2.5,2.5 0 1 1 169.74,189.08A2.5,2.5 0 1 1 174.74,189.08Z" style="fill:none;stroke:#F15A60;stroke-width:0.5" />
<path d="M181.01,195.86A2.5,2.5 0 1 1 176.01,195.86A2.5,2.5 0 1 1 181.01,195.86Z" style="fill:none;stroke:#F15A60;stroke-width:0.5" />
<path d="M187.22,202.5A2.5,2.5 0 1 1 182.22,202.5A2.5,2.5 0 1 1 187.22,202.5Z" style="fill:none;stroke:#F15A60;stroke-width:0.5" />
<path d="M193.36,209.01A2.5,2.5 0 1 1 188.36,209.01A2.5,2.5 0 1 1 193.36,209.01Z" style="fill:none;stroke:#F15A60;stroke-width:0.5" />
<path d="M199.45,215.39A2.5,2.5 0 1 1 194.45,215.39A2.5,2.5 0 1 1 199.45,215.39Z" style="fill:none;stroke:#F15A60;stroke-width:0.5" />
<path d="M205.47,221.64A2.5,2.5 0 1 1 200.47,221.64A2.5,2.5 0 1 1 205.47,221.64Z" style="fill:none;stroke:#F15A60;stroke-width:0.5" />
<path d="M211.43,227.75A2.5,2.5 0 1 1 206.43,227.75A2.5,2.5 0 1 1 211.43,227.75Z" style="fill:none;stroke:#F15A60;stroke-width:0.5" />
<path d="M217.33,233.73A2.5,2.5 0 1 1 212.33,233.73A2.5,2.5 0 1 1 217.33,233.73Z" style="fill:none;stroke:#F15A60;stroke-width:0.5" />
<path d="M223.16,239.58A2.5,2.5 0 1 1 218.16,239.58A2.5,2.5 0 1 1 223.16,239.58Z" style="fill:none;stroke:#F15A60;stroke-width:0.5" />
<path d="M228.93,245.29A2.5,2.5 0 1 1 223.93,245.29A2.5,2.5 0 1 1 228.93,245.29Z" style="fill:none;stroke:#F15A60;stroke-width:0.5" />
<path d="M234.64,250.87A2.5,2.5 0 1 1 229.64,250.87A2.5,2.5 0 1 1 234.64,250.87Z" style="fill:none;stroke:#F15A60;stroke-width:0.5" />
<path d="M240.29,256.32A2.5,2.5 0 1 1 235.29,256.32A2.5,2.5 0 1 1 240.29,256.32Z" style="fill:none;stroke:#F15A60;stroke-width:0.5" />
<path d="M245.88,261.63A2.5,2.5 0 1 1 240.88,261.63A2.5,2.5 0 1 1 245.88,261.63Z" style="fill:none;stroke:#F15A60;stroke-width:0.5" />
<path d="M251.4,266.81A2.5,2.5 0 1 1 246.4,266.81A2.5,2.5 0 1 1 251.4,266.81Z" style="fill:none;stroke:#F15A60;stroke-width:0.5" />
<path d="M256.86,271.86A2.5,2.5 0 1 1 251.86,271.86A2.5,2.5 0 1 1 256.86,271.86Z" style="fill:none;stroke:#F15A60;stroke-width:0.5" />
<path d="M262.26,276.78A2.5,2.5 0 1 1 257.26,276.78A2.5,2.5 0 1 1 262.26,276.78Z" style="fill:none;stroke:#F15A60;stroke-width:0.5" />
<path d="M267.6,281.56A2.5,2.5 0 1 1 262.6,281.56A2.5,2.5 0 1 1 267.6,281.56Z" style="fill:none;stroke:#F15A60;stroke-width:0.5" />
<path d="M272.88,286.21A2.5,2.5 0 1 1 267.88,286.21A2.5,2.5 0 1 1 272.88,286.21Z" style="fill:none;stroke:#F15A60;stroke-width:0.5" />
<path d="M278.09,290.72A2.5,2.5 0 1 1 273.09,290.72A2.5,2.5 0 1 1 278.09,290.72Z" style="fill:none;stroke:#F15A60;stroke-width:0.5" />
<path d="M283.24,295.11A2.5,2.5 0 1 1 278.24,295.11A2.5,2.5 0 1 1 283.24,295.11Z" style="fill:none;stroke:#F15A60;stroke-width:0.5" />
<path d="M288.33,299.35A2.5,2.5 0 1 1 283.33,299.35A2.5,2.5 0 1 1 288.33,299.35Z" style="fill:none;stroke:#F15A60;stroke-width:0.5" />
<path d="M293.35,303.47A2.5,2.5 0 1 1 288.35,303.47A2.5,2.5 0 1 1 293.35,303.47Z" style="fill:none;stroke:#F15A60;stroke-width:0.5" />
<path d="M298.32,307.45A2.5,2.5 0 1 1 293.32,307.45A2.5,2.5 0 1 1 298.32,307.45Z" style="fill:none;stroke:#F15A60;stroke-width:0.5" />
<path d="M303.22,311.3A2.5,2.5 0 1 1 298.22,311.3A2.5,2.5 0 1 1 303.22,311.3Z" style="fill:none;stroke:#F15A60;stroke-width:0.5" />
<path d="M308.06,315.02A2.5,2.5 0 1 1 303.06,315.02A2.5,2.5 0 1 1 308.06,315.02Z" style="fill:none;stroke:#F15A60;stroke-width:0.5" />
<path d="M312.83,318.61A2.5,2.5 0 1 1 307.83,318.61A2.5,2.5 0 1 1 312.83,318.61Z" style="fill:none;stroke:#F15A60;stroke-width:0.5" />
<path d="M317.55,322.06A2.5,2.5 0 1 1 312.55,322.06A2.5,2.5 0 1 1 317.55,322.06Z" style="fill:none;stroke:#F15A60;stroke-width:0.5" />
<path d="M322.2,325.37A2.5,2.5 0 1 1 317.2,325.37A2.5,2.5 0 1 1 322.2,325.37Z" style="fill:none;stroke:#F15A60;stroke-width:0.5" />
<path d="M326.79,328.56A2.5,2.5 0 1 1 321.79,328.56A2.5,2.5 0 1 1 326.79,328.56Z" style="fill:none;stroke:#F15A60;stroke-width:0.5" />
<path d="M331.32,331.61A2.5,2.5 0 1 1 326.32,331.61A2.5,2.5 0 1 1 331.32,331.61Z" style="fill:none;stroke:#F15A60;stroke-width:0.5" />
<path d="M335.78,334.53A2.5,2.5 0 1 1 330.78,334.53A2.5,2.5 0 1 1 335.78,334.53Z" style="fill:none;stroke:#F15A60;stroke-width:0.5" />
<path d="M340.19,337.31A2.5,2.5 0 1 1 335.19,337.31A2.5,2.5 0 1 1 340.19,337.31Z" style="fill:none;stroke:#F15A60;stroke-width:0.5" />
<path d="M344.53,339.97A2.5,2.5 0 1 1 339.53,339.97A2.5,2.5 0 1 1 344.53,339.97Z" style="fill:none;stroke:#F15A60;stroke-width:0.5" />
<path d="M348.81,342.49A2.5,2.5 0 1 1 343.81,342.49A2.5,2.5 0 1 1 348.81,342.49Z" style="fill:none;stroke:#F15A60;stroke-width:0.5" />
<path d="M353.03,344.87A2.5,2.5 0 1 1 348.03,344.87A2.5,2.5 0 1 1 353.03,344.87Z" style="fill:none;stroke:#F15A60;stroke-width:0.5" />
<path d="M357.18,347.13A2.5,2.5 0 1 1 352.18,347.13A2.5,2.5 0 1 1 357.18,347.13Z" style="fill:none;stroke:#F15A60;stroke-width:0.5" />
<path d="M361.27,349.25A2.5,2.5 0 1 1 356.27,349.25A2.5,2.5 0 1 1 361.27,349.25Z" style="fill:none;stroke:#F15A60;stroke-width:0.5" />
<path d="M365.3,351.23A2.5,2.5 0 1 1 360.3,351.23A2.5,2.5 0 1 1 365.3,351.23Z" style="fill:none;stroke:#F15A60;stroke-width:0.5" />
<path d="M369.27,353.09A2.5,2.5 0 1 1 364.27,353.09A2.5,2.5 0 1 1 369.27,353.09Z" style="fill:none;stroke:#F15A60;stroke-width:0.5" />
<path d="M373.17,354.81A2.5,2.5 0 1 1 368.17,354.81A2.5,2.5 0 1 1 373.17,354.81Z" style="fill:none;stroke:#F15A60;stroke-width:0.5" />
<path d="M377.02,356.39A2.5,2.5 0 1 1 372.02,356.39A2.5,2.5 0 1 1 377.02,356.39Z" style="fill:none;stroke:#F15A60;stroke-width:0.5" />
<path d="M380.8,357.85A2.5,2.5 0 1 1 375.8,357.85A2.5,2.5 0 1 1 380.8,357.85Z" style="fill:none;stroke:#F15A60;stroke-width:0.5" />
<path d="M384.52,359.17A2.5,2.5 0 1 1 379.52,359.17A2.5,2.5 0 1 1 384.52,359.17Z" style="fill:none;stroke:#F15A60;stroke-width:0.5" />
<path d="M388.17,360.36A2.5,2.5 0 1 1 383.17,360.36A2.5,2.5 0 1 1 388.17,360.36Z" style="fill:none;stroke:#F15A60;stroke-width:0.5" />
<path d="M391.77,361.41A2.5,2.5 0 1 1 386.77,361.41A2.5,2.5 0 1 1 391.77,361.41Z" style="fill:none;stroke:#F15A60;stroke-width:0.5" />
<path d="M395.3,362.34A2.5,2.5 0 1 1 390.3,362.34A2.5,2.5 0 1 1 395.3,362.34Z" style="fill:none;stroke:#F15A60;stroke-width:0.5" />
<path d="M398.77,363.13A2.5,2.5 0 1 1 393.77,363.13A2.5,2.5 0 1 1 398.77,363.13Z" style="fill:none;stroke:#F15A60;stroke-width:0.5" />
<path d="M402.18,363.78A2.5,2.5 0 1 1 397.18,363.78A2.5,2.5 0 1 1 402.18,363.78Z" style="fill:none;stroke:#F15A60;stroke-width:0.5" />
<path d="M405.52,364.3A2.5,2.5 0 1 1 400.52,364.3A2.5,2.5 0 1 1 405.52,364.3Z" style="fill:none;stroke:#F15A60;stroke-width:0.5" />
<path d="M408.81,364.69A2.5,2.5 0 1 1 403.81,364.69A2.5,2.5 0 1 1 408.81,364.69Z" style="fill:none;stroke:#F15A60;stroke-width:0.5" />
<path d="M412.03,364.95A2.5,2.5 0 1 1 407.03,364.95A2.5,2.5 0 1 1 412.03,364.95Z" style="fill:none;stroke:#F15A60;stroke-width:0.5" />
<path d="M415.19,365.07A2.5,2.5 0 1 1 410.19,365.07A2.5,2.5 0 1 1 415.19,365.07Z" style="fill:none;stroke:#F15A60;stroke-width:0.5" />
<path d="M418.28,365.06A2.5,2.5 0 1 1 413.28,365.06A2.5,2.5 0 1 1 418.28,365.06Z" style="fill:none;stroke:#F15A60;stroke-width:0.5" />
<path d="M421.32,364.92A2.5,2.5 0 1 1 416.32,364.92A2.5,2.5 0 1 1 421.32,364.92Z" style="fill:none;stroke:#F15A60;stroke-width:0.5" />
<path d="M424.29,364.65A2.5,2.5 0 1 1 419.29,364.65A2.5,2.5 0 1 1 424.29,364.65Z" style="fill:none;stroke:#F15A60;stroke-width:0.5" />
<path d="M427.2,364.24A2.5,2.5 0 1 1 422.2,364.24A2.5,2.5 0 1 1 427.2,364.24Z" style="fill:none;stroke:#F15A60;stroke-width:0.5" />
<path d="M430.04,363.7A2.5,2.5 0 1 1 425.04,363.7A2.5,2.5 0 1 1 430.04,363.7Z" style="fill:none;stroke:#F15A60;stroke-width:0.5" />
<path d="M432.83,363.02A2.5,2.5 0 1 1 427.83,363.02A2.5,2.5 0 1 1 432.83,363.02Z" style="fill:none;stroke:#F15A60;stroke-width:0.5" />
<path d="M435.55,362.21A2.5,2.5 0 1 1 430.55,362.21A2.5,2.5 0 1 1 435.55,362.21Z" style="fill:none;stroke:#F15A60;stroke-width:0.5" />
<path d="M438.21,361.27A2.5,2.5 0 1 1 433.21,361.27A2.5,2.5 0 1 1 438.21,361.27Z" style="fill:none;stroke:#F15A60;stroke-width:0.5" />
<path d="M440.81,360.2A2.5,2.5 0 1 1 435.81,360.2A2.5,2.5 0 1 1 440.81,360.2Z" style="fill:none;stroke:#F15A60;stroke-width:0.5" />
<path d="M443.35,358.99A2.5,2.5 0 1 1 438.35,358.99A2.5,2.5 0 1 1 443.35,358.99Z" style="fill:none;stroke:#F15A60;stroke-width:0.5" />
<path d="M445.82,357.65A2.5,2.5 0 1 1 440.82,357.65A2.5,2.5 0 1 1 445.82,357.65Z" style="fill:none;stroke:#F15A60;stroke-width:0.5" />
<path d="M448.23,356.18A2.5,2.5 0 1 1 443.23,356.18A2.5,2.5 0 1 1 448.23,356.18Z" style="fill:none;stroke:#F15A60;stroke-width:0.5" />
<path d="M450.58,354.57A2.5,2.5 0 1 1 445.58,354.57A2.5,2.5 0 1 1 450.58,354.57Z" style="fill:none;stroke:#F15A60;stroke-width:0.5" />
<path d="M452.87,352.83A2.5,2.5 0 1 1 447.87,352.83A2.5,2.5 0 1 1 452.87,352.83Z" style="fill:none;stroke:#F15A60;stroke-width:0.5" />
<path d="M455.09,350.96A2.5,2.5 0 1 1 450.09,350.96A2.5,2.5 0 1 1 455.09,350.96Z" style="fill:none;stroke:#F15A60;stroke-width:0.5" />
<path d="M457.26,348.95A2.5,2.5 0 1 1 452.26,348.95A2.5,2.5 0 1 1 457.26,348.95Z" style="fill:none;stroke:#F15A60;stroke-width:0.5" />
<path d="M459.36,346.81A2.5,2.5 0 1 1 454.36,346.81A2.5,2.5 0 1 1 459.36,346.81Z" style="fill:none;stroke:#F15A60;stroke-width:0.5" />
<path d="M461.4,344.54A2.5,2.5 0 1 1 456.4,344.54A2.5,2.5 0 1 1 461.4,344.54Z" style="fill:none;stroke:#F15A60;stroke-width:0.5" />
<path d="M463.37,342.13A2.5,2.5 0 1 1 458.37,342.13A2.5,2.5 0 1 1 463.37,342.13Z" style="fill:none;stroke:#F15A60;stroke-width:0.5" />
<path d="M465.28,339.6A2.5,2.5 0 1 1 460.28,339.6A2.5,2.5 0 1 1 465.28,339.6Z" style="fill:none;stroke:#F15A60;stroke-width:0.5" />
<path d="M467.14,336.93A2.5,2.5 0 1 1 462.14,336.93A2.5,2.5 0 1 1 467.14,336.93Z" style="fill:none;stroke:#F15A60;stroke-width:0.5" />
<path d="M468.93,334.12A2.5,2.5 0 1 1 463.93,334.12A2.5,2.5 0 1 1 468.93,334.12Z" style="fill:none;stroke:#F15A60;stroke-width:0.5" />
<path d="M470.65,331.18A2.5,2.5 0 1 1 465.65,331.18A2.5,2.5 0 1 1 470.65,331.18Z" style="fill:none;stroke:#F15A60;stroke-width:0.5" />
<path d="M472.32,328.11A2.5,2.5 0 1 1 467.32,328.11A2.5,2.5 0 1 1 472.32,328.11Z" style="fill:none;stroke:#F15A60;stroke-width:0.5" />
<path d="M473.92,324.91A2.5,2.5 0 1 1 468.92,324.91A2.5,2.5 0 1 1 473.92,324.91Z" style="fill:none;stroke:#F15A60;stroke-width:0.5" />
<path d="M475.46,321.57A2.5,2.5 0 1 1 470.46,321.57A2.5,2.5 0 1 1 475.46,321.57Z" style="fill:none;stroke:#F15A60;stroke-width:0.5" />
<path d="M476.94,318.1A2.5,2.5 0 1 1 471.94,318.1A2.5,2.5 0 1 1 476.94,318.1Z" style="fill:none;stroke:#F15A60;stroke-width:0.5" />
<path d="M478.35,314.5A2.5,2.5 0 1 1 473.35,314.5A2.5,2.5 0 1 1 478.35,314.5Z" style="fill:none;stroke:#F15A60;stroke-width:0.5" />
<path d="M479.71,310.76A2.5,2.5 0 1 1 474.71,310.76A2.5,2.5 0 1 1 479.71,310.76Z" style="fill:none;stroke:#F15A60;stroke-width:0.5" />
<path d="M481,306.89A2.5,2.5 0 1 1 476,306.89A2.5,2.5 0 1 1 481,306.89Z" style="fill:none;stroke:#F15A60;stroke-width:0.5" />
<path d="M482.23,302.89A2.5,2.5 0 1 1 477.23,302.89A2.5,2.5 0 1 1 482.23,302.89Z" style="fill:none;stroke:#F15A60;stroke-width:0.5" />
<path d="M483.39,298.76A2.5,2.5 0 1 1 478.39,298.76A2.5,2.5 0 1 1 483.39,298.76Z" style="fill:none;stroke:#F15A60;stroke-width:0.5" />
<path d="M484.5,294.49A2.5,2.5 0 1 1 479.5,294.49A2.5,2.5 0 1 1 484.5,294.49Z" style="fill:none;stroke:#F15A60;stroke-width:0.5" />
<path d="M485.54,290.09A2.5,2.5 0 1 1 480.54,290.09A2.5,2.5 0 1 1 485.54,290.09Z" style="fill:none;stroke:#F15A60;stroke-width:0.5" />
<path d="M486.52,285.55A2.5,2.5 0 1 1 481.52,285.55A2.5,2.5 0 1 1 486.52,285.55Z" style="fill:none;stroke:#F15A60;stroke-width:0.5" />
<path d="M487.44,280.88A2.5,2.5 0 1 1 482.44,280.88A2.5,2.5 0 1 1 487.44,280.88Z" style="fill:none;stroke:#F15A60;stroke-width:0.5" />
<path d="M488.29,276.08A2.5,2.5 0 1 1 483.29,276.08A2.5,2.5 0 1 1 488.29,276.08Z" style="fill:none;stroke:#F15A60;stroke-width:0.5" />
<path d="M489.09,271.15A2.5,2.5 0 1 1 484.09,271.15A2.5,2.5 0 1 1 489.09,271.15Z" style="fill:none;stroke:#F15A60;stroke-width:0.5" />
<path d="M489.82,266.08A2.5,2.5 0 1 1 484.82,266.08A2.5,2.5 0 1 1 489.82,266.08Z" style="fill:none;stroke:#F15A60;stroke-width:0.5" />
<path d="M490.49,260.88A2.5,2.5 0 1 1 485.49,260.88A2.5,2.5 0 1 1 490.49,260.88Z" style="fill:none;stroke:#F15A60;stroke-width:0.5" />
<path d="M491.09,255.55A2.5,2.5 0 1 1 486.09,255.55A2.5,2.5 0 1 1 491.09,255.55Z" style="fill:none;stroke:#F15A60;stroke-width:0.5" />
<path d="M491.64,250.08A2.5,2.5 0 1 1 486.64,250.08A2.5,2.5 0 1 1 491.64,250.08Z" style="fill:none;stroke:#F15A60;stroke-width:0.5" />
<path d="M492.12,244.48A2.5,2.5 0 1 1 487.12,244.48A2.5,2.5 0 1 1 492.12,244.48Z" style="fill:none;stroke:#F15A60;stroke-width:0.5" />
<path d="M492.54,238.75A2.5,2.5 0 1 1 487.54,238.75A2.5,2.5 0 1 1 492.54,238.75Z" style="fill:none;stroke:#F15A60;stroke-width:0.5" />
<path d="M492.9,232.88A2.5,2.5 0 1 1 487.9,232.88A2.5,2.5 0 1 1 492.9,232.88Z" style="fill:none;stroke:#F15A60;stroke-width:0.5" />
<path d="M493.19,226.89A2.5,2.5 0 1 1 488.19,226.89A2.5,2.5 0 1 1 493.19,226.89Z" style="fill:none;stroke:#F15A60;stroke-width:0.5" />
<path d="M493.42,220.75A2.5,2.5 0 1 1 488.42,220.75A2.5,2.5 0 1 1 493.42,220.75Z" style="fill:none;stroke:#F15A60;stroke-width:0.5" />
<path d="M493.6,214.49A2.5,2.5 0 1 1 488.6,214.49A2.5,2.5 0 1 1 493.6,214.49Z" style="fill:none;stroke:#F15A60;stroke-width:0.5" />
<path d="M493.7,208.09A2.5,2.5 0 1 1 488.7,208.09A2.5,2.5 0 1 1 493.7,208.09Z" style="fill:none;stroke:#F15A60;stroke-width:0.5" />
<path d="M493.75,201.56A2.5,2.5 0 1 1 488.75,201.56A2.5,2.5 0 1 1 493.75,201.56Z" style="fill:none;stroke:#F15A60;stroke-width:0.5" />
<path d="M493.73,194.9A2.5,2.5 0 1 1 488.73,194.9A2.5,2.5 0 1 1 493.73,194.9Z" style="fill:none;stroke:#F15A60;stroke-width:0.5" />
<path d="M493.66,188.1A2.5,2.5 0 1 1 488.66,188.1A2.5,2.5 0 1 1 493.66,188.1Z" style="fill:none;stroke:#F15A60;stroke-width:0.5" />
<path d="M493.52,181.17A2.5,2.5 0 1 1 488.52,181.17A2.5,2.5 0 1 1 493.52,181.17Z" style="fill:none;stroke:#F15A60;stroke-width:0.5" />
<path d="M493.31,174.11A2.5,2.5 0 1 1 488.31,174.11A2.5,2.5 0 1 1 493.31,174.11Z" style="fill:none;stroke:#F15A60;stroke-width:0.5" />
<path d="M493.05,166.91A2.5,2.5 0 1 1 488.05,166.91A2.5,2.5 0 1 1 493.05,166.91Z" style="fill:none;stroke:#F15A60;stroke-width:0.5" />
<path d="M492.72,159.58A2.5,2.5 0 1 1 487.72,159.58A2.5,2.5 0 1 1 492.72,159.58Z" style="fill:none;stroke:#F15A60;stroke-width:0.5" />
<path d="M492.33,152.12A2.5,2.5 0 1 1 487.33,152.12A2.5,2.5 0 1 1 492.33,152.12Z" style="fill:none;stroke:#F15A60;stroke-width:0.5" />
<path d="M491.88,144.52A2.5,2.5 0 1 1 486.88,144.52A2.5,2.5 0 1 1 491.88,144.52Z" style="fill:none;stroke:#F15A60;stroke-width:0.5" />
<path d="M491.37,136.79A2.5,2.5 0 1 1 486.37,136.79A2.5,2.5 0 1 1 491.37,136.79Z" style="fill:none;stroke:#F15A60;stroke-width:0.5" />
<path d="M490.79,128.93A2.5,2.5 0 1 1 485.79,128.93A2.5,2.5 0 1 1 490.79,128.93Z" style="fill:none;stroke:#F15A60;stroke-width:0.5" />
<path d="M490.15,120.93A2.5,2.5 0 1 1 485.15,120.93A2.5,2.5 0 1 1 490.15,120.93Z" style="fill:none;stroke:#F15A60;stroke-width:0.5" />
<path d="M489.45,112.81A2.5,2.5 0 1 1 484.45,112.81A2.5,2.5 0 1 1 489.45,112.81Z" style="fill:none;stroke:#F15A60;stroke-width:0.5" />
<path d="M488.69,104.55A2.5,2.5 0 1 1 483.69,104.55A2.5,2.5 0 1 1 488.69,104.55Z" style="fill:none;stroke:#F15A60;stroke-width:0.5" />
<path d="M487.86,96.151A2.5,2.5 0 1 1 482.86,96.151A2.5,2.5 0 1 1 487.86,96.151Z" style="fill:none;stroke:#F15A60;stroke-width:0.5" />
<path d="M486.97,87.624A2.5,2.5 0 1 1 481.97,87.624A2.5,2.5 0 1 1 486.97,87.624Z" style="fill:none;stroke:#F15A60;stroke-width:0.5" />
<path d="M486.03,78.963A2.5,2.5 0 1 1 481.03,78.963A2.5,2.5 0 1 1 486.03,78.963Z" style="fill:none;stroke:#F15A60;stroke-width:0.5" />
<path d="M485.01,70.169A2.5,2.5 0 1 1 480.01,70.169A2.5,2.5 0 1 1 485.01,70.169Z" style="fill:none;stroke:#F15A60;stroke-width:0.5" />
<path d="M483.94,61.243A2.5,2.5 0 1 1 478.94,61.243A2.5,2.5 0 1 1 483.94,61.243Z" style="fill:none;stroke:#F15A60;stroke-width:0.5" />
<path d="M482.8,52.183A2.5,2.5 0 1 1 477.8,52.183A2.5,2.5 0 1 1 482.8,52.183Z" style="fill:none;stroke:#F15A60;stroke-width:0.5" />
<path d="M481.6,42.99A2.5,2.5 0 1 1 476.6,42.99A2.5,2.5 0 1 1 481.6,42.99Z" style="fill:none;stroke:#F15A60;stroke-width:0.5" />
<path d="M480.34,33.664A2.5,2.5 0 1 1 475.34,33.664A2.5,2.5 0 1 1 480.34,33.664Z" style="fill:none;stroke:#F15A60;stroke-width:0.5" />
</g>
</svg>
