<?xml version="1.0"?>
<!-- Generated by SVGo and Plotinum VG -->
<svg width="720pt" height="720pt" viewBox="0 0 720 720"
	xmlns="http://www.w3.org/2000/svg"
	xmlns:xlink="http://www.w3.org/1999/xlink">
<g transform="scale(1, -1) translate(0, -720)">
<path d="M0,0L720,0L720,720L0,720Z" style="fill:#FFFFFF" />
<text x="106.09" y="-0.18555" transform="scale(1, -1)"
	style="font-family:Times;font-weight:normal;font-style:normal;font-size:10px">2.50</text>
<text x="393.07" y="-0.18555" transform="scale(1, -1)"
	style="font-family:Times;font-weight:normal;font-style:normal;font-size:10px">7.50</text>
<text x="677.55" y="-0.18555" transform="scale(1, -1)"
	style="font-family:Times;font-weight:normal;font-style:normal;font-size:10px">12.50</text>
<path d="M114.84,9.8145L114.84,17.814" style="fill:none;stroke:#000000;stroke-width:0.5" />
<path d="M401.82,9.8145L401.82,17.814" style="fill:none;stroke:#000000;stroke-width:0.5" />
<path d="M688.8,9.8145L688.8,17.814" style="fill:none;stroke:#000000;stroke-width:0.5" />
<path d="M57.448,13.814L57.448,17.814" style="fill:none;stroke:#000000;stroke-width:0.5" />
<path d="M172.24,13.814L172.24,17.814" style="fill:none;stroke:#000000;stroke-width:0.5" />
<path d="M229.64,13.814L229.64,17.814" style="fill:none;stroke:#000000;stroke-width:0.5" />
<path d="M287.03,13.814L287.03,17.814" style="fill:none;stroke:#000000;stroke-width:0.5" />
<path d="M344.43,13.814L344.43,17.814" style="fill:none;stroke:#000000;stroke-width:0.5" />
<path d="M459.22,13.814L459.22,17.814" style="fill:none;stroke:#000000;stroke-width:0.5" />
<path d="M516.61,13.814L516.61,17.814" style="fill:none;stroke:#000000;stroke-width:0.5" />
<path d="M574.01,13.814L574.01,17.814" style="fill:none;stroke:#000000;stroke-width:0.5" />
<path d="M631.41,13.814L631.41,17.814" style="fill:none;stroke:#000000;stroke-width:0.5" />
<path d="M28.75,17.814L717.5,17.814" style="fill:none;stroke:#000000;stroke-width:0.5" />
<text x="5" y="-20.843" transform="scale(1, -1)"
	style="font-family:Times;font-weight:normal;font-style:normal;font-size:10px">0</text>
<text x="0" y="-365.61" transform="scale(1, -1)"
	style="font-family:Times;font-weight:normal;font-style:normal;font-size:10px">10</text>
<text x="0" y="-710.37" transform="scale(1, -1)"
	style="font-family:Times;font-weight:normal;font-style:normal;font-size:10px">20</text>
<path d="M12.5,25.564L20.5,25.564" style="fill:none;stroke:#000000;stroke-width:0.5" />
<path d="M12.5,370.33L20.5,370.33" style="fill:none;stroke:#000000;stroke-width:0.5" />
<path d="M12.5,715.09L20.5,715.09" style="fill:none;stroke:#000000;stroke-width:0.5" />
<path d="M16.5,94.517L20.5,94.517" style="fill:none;stroke:#000000;stroke-width:0.5" />
<path d="M16.5,163.47L20.5,163.47" style="fill:none;stroke:#000000;stroke-width:0.5" />
<path d="M16.5,232.42L20.5,232.42" style="fill:none;stroke:#000000;stroke-width:0.5" />
<path d="M16.5,301.38L20.5,301.38" style="fill:none;stroke:#000000;stroke-width:0.5" />
<path d="M16.5,439.28L20.5,439.28" style="fill:none;stroke:#000000;stroke-width:0.5" />
<path d="M16.5,508.23L20.5,508.23" style="fill:none;stroke:#000000;stroke-width:0.5" />
<path d="M16.5,577.19L20.5,577.19" style="fill:none;stroke:#000000;stroke-width:0.5" />
<path d="M16.5,646.14L20.5,646.14" style="fill:none;stroke:#000000;stroke-width:0.5" />
<path d="M20.5,25.564L20.5,715.09" style="fill:none;stroke:#000000;stroke-width:0.5" />
<path d="M28.75,25.564L28.75,60.041L86.146,94.517L143.54,60.041L86.146,60.041L143.54,94.517L143.54,128.99L200.94,94.517L143.54,128.99L200.94,163.47L143.54,197.95L143.54,232.42L200.94,197.95L200.94,232.42L258.33,232.42L258.33,266.9L315.73,266.9L258.33,266.9L315.73,301.38L373.12,301.38L315.73,335.85L373.12,370.33L315.73,370.33L373.12,370.33L430.52,404.81L430.52,439.28L373.12,473.76L430.52,439.28L487.92,439.28L545.31,473.76L602.71,508.23L602.71,542.71L545.31,577.19L602.71,577.19L660.1,611.66L717.5,646.14L717.5,680.62L660.1,715.09" style="fill:none;stroke:#F15A60" />
<path d="M31.25,25.564A2.5,2.5 0 1 1 26.25,25.564A2.5,2.5 0 1 1 31.25,25.564Z" style="fill:none;stroke:#F15A60;stroke-width:0.5" />
<path d="M31.25,60.041A2.5,2.5 0 1 1 26.25,60.041A2.5,2.5 0 1 1 31.25,60.041Z" style="fill:none;stroke:#F15A60;stroke-width:0.5" />
<path d="M88.646,94.517A2.5,2.5 0 1 1 83.646,94.517A2.5,2.5 0 1 1 88.646,94.517Z" style="fill:none;stroke:#F15A60;stroke-width:0.5" />
<path d="M146.04,60.041A2.5,2.5 0 1 1 141.04,60.041A2.5,2.5 0 1 1 146.04,60.041Z" style="fill:none;stroke:#F15A60;stroke-width:0.5" />
<path d="M88.646,60.041A2.5,2.5 0 1 1 83.646,60.041A2.5,2.5 0 1 1 88.646,60.041Z" style="fill:none;stroke:#F15A60;stroke-width:0.5" />
<path d="M146.04,94.517A2.5,2.5 0 1 1 141.04,94.517A2.5,2.5 0 1 1 146.04,94.517Z" style="fill:none;stroke:#F15A60;stroke-width:0.5" />
<path d="M146.04,128.99A2.5,2.5 0 1 1 141.04,128.99A2.5,2.5 0 1 1 146.04,128.99Z" style="fill:none;stroke:#F15A60;stroke-width:0.5" />
<path d="M203.44,94.517A2.5,2.5 0 1 1 198.44,94.517A2.5,2.5 0 1 1 203.44,94.517Z" style="fill:none;stroke:#F15A60;stroke-width:0.5" />
<path d="M146.04,128.99A2.5,2.5 0 1 1 141.04,128.99A2.5,2.5 0 1 1 146.04,128.99Z" style="fill:none;stroke:#F15A60;stroke-width:0.5" />
<path d="M203.44,163.47A2.5,2.5 0 1 1 198.44,163.47A2.5,2.5 0 1 1 203.44,163.47Z" style="fill:none;stroke:#F15A60;stroke-width:0.5" />
<path d="M146.04,197.95A2.5,2.5 0 1 1 141.04,197.95A2.5,2.5 0 1 1 146.04,197.95Z" style="fill:none;stroke:#F15A60;stroke-width:0.5" />
<path d="M146.04,232.42A2.5,2.5 0 1 1 141.04,232.42A2.5,2.5 0 1 1 146.04,232.42Z" style="fill:none;stroke:#F15A60;stroke-width:0.5" />
<path d="M203.44,197.95A2.5,2.5 0 1 1 198.44,197.95A2.5,2.5 0 1 1 203.44,197.95Z" style="fill:none;stroke:#F15A60;stroke-width:0.5" />
<path d="M203.44,232.42A2.5,2.5 0 1 1 198.44,232.42A2.5,2.5 0 1 1 203.44,232.42Z" style="fill:none;stroke:#F15A60;stroke-width:0.5" />
<path d="M260.83,232.42A2.5,2.5 0 1 1 255.83,232.42A2.5,2.5 0 1 1 260.83,232.42Z" style="fill:none;stroke:#F15A60;stroke-width:0.5" />
<path d="M260.83,266.9A2.5,2.5 0 1 1 255.83,266.9A2.5,2.5 0 1 1 260.83,266.9Z" style="fill:none;stroke:#F15A60;stroke-width:0.5" />
<path d="M318.23,266.9A2.5,2.5 0 1 1 313.23,266.9A2.5,2.5 0 1 1 318.23,266.9Z" style="fill:none;stroke:#F15A60;stroke-width:0.5" />
<path d="M260.83,266.9A2.5,2.5 0 1 1 255.83,266.9A2.5,2.5 0 1 1 260.83,266.9Z" style="fill:none;stroke:#F15A60;stroke-width:0.5" />
<path d="M318.23,301.38A2.5,2.5 0 1 1 313.23,301.38A2.5,2.5 0 1 1 318.23,301.38Z" style="fill:none;stroke:#F15A60;stroke-width:0.5" />
<path d="M375.62,301.38A2.5,2.5 0 1 1 370.62,301.38A2.5,2.5 0 1 1 375.62,301.38Z" style="fill:none;stroke:#F15A60;stroke-width:0.5" />
<path d="M318.23,335.85A2.5,2.5 0 1 1 313.23,335.85A2.5,2.5 0 1 1 318.23,335.85Z" style="fill:none;stroke:#F15A60;stroke-width:0.5" />
<path d="M375.62,370.33A2.5,2.5 0 1 1 370.62,370.33A2.5,2.5 0 1 1 375.62,370.33Z" style="fill:none;stroke:#F15A60;stroke-width:0.5" />
<path d="M318.23,370.33A2.5,2.5 0 1 1 313.23,370.33A2.5,2.5 0 1 1 318.23,370.33Z" style="fill:none;stroke:#F15A60;stroke-width:0.5" />
<path d="M375.62,370.33A2.5,2.5 0 1 1 370.62,370.33A2.5,2.5 0 1 1 375.62,370.33Z" style="fill:none;stroke:#F15A60;stroke-width:0.5" />
<path d="M433.02,404.81A2.5,2.5 0 1 1 428.02,404.81A2.5,2.5 0 1 1 433.02,404.81Z" style="fill:none;stroke:#F15A60;stroke-width:0.5" />
<path d="M433.02,439.28A2.5,2.5 0 1 1 428.02,439.28A2.5,2.5 0 1 1 433.02,439.28Z" style="fill:none;stroke:#F15A60;stroke-width:0.5" />
<path d="M375.62,473.76A2.5,2.5 0 1 1 370.62,473.76A2.5,2.5 0 1 1 375.62,473.76Z" style="fill:none;stroke:#F15A60;stroke-width:0.5" />
<path d="M433.02,439.28A2.5,2.5 0 1 1 428.02,439.28A2.5,2.5 0 1 1 433.02,439.28Z" style="fill:none;stroke:#F15A60;stroke-width:0.5" />
<path d="M490.42,439.28A2.5,2.5 0 1 1 485.42,439.28A2.5,2.5 0 1 1 490.42,439.28Z" style="fill:none;stroke:#F15A60;stroke-width:0.5" />
<path d="M547.81,473.76A2.5,2.5 0 1 1 542.81,473.76A2.5,2.5 0 1 1 547.81,473.76Z" style="fill:none;stroke:#F15A60;stroke-width:0.5" />
<path d="M605.21,508.23A2.5,2.5 0 1 1 600.21,508.23A2.5,2.5 0 1 1 605.21,508.23Z" style="fill:none;stroke:#F15A60;stroke-width:0.5" />
<path d="M605.21,542.71A2.5,2.5 0 1 1 600.21,542.71A2.5,2.5 0 1 1 605.21,542.71Z" style="fill:none;stroke:#F15A60;stroke-width:0.5" />
<path d="M547.81,577.19A2.5,2.5 0 1 1 542.81,577.19A2.5,2.5 0 1 1 547.81,577.19Z" style="fill:none;stroke:#F15A60;stroke-width:0.5" />
<path d="M605.21,577.19A2.5,2.5 0 1 1 600.21,577.19A2.5,2.5 0 1 1 605.21,577.19Z" style="fill:none;stroke:#F15A60;stroke-width:0.5" />
<path d="M662.6,611.66A2.5,2.5 0 1 1 657.6,611.66A2.5,2.5 0 1 1 662.6,611.66Z" style="fill:none;stroke:#F15A60;stroke-width:0.5" />
<path d="M720,646.14A2.5,2.5 0 1 1 715,646.14A2.5,2.5 0 1 1 720,646.14Z" style="fill:none;stroke:#F15A60;stroke-width:0.5" />
<path d="M720,680.62A2.5,2.5 0 1 1 715,680.62A2.5,2.5 0 1 1 720,680.62Z" style="fill:none;stroke:#F15A60;stroke-width:0.5" />
<path d="M662.6,715.09A2.5,2.5 0 1 1 657.6,715.09A2.5,2.5 0 1 1 662.6,715.09Z" style="fill:none;stroke:#F15A60;stroke-width:0.5" />
</g>
</svg>
