<?xml version="1.0"?>
<!-- Generated by SVGo and Plotinum VG -->
<svg width="720pt" height="720pt" viewBox="0 0 720 720"
	xmlns="http://www.w3.org/2000/svg"
	xmlns:xlink="http://www.w3.org/1999/xlink">
<g transform="scale(1, -1) translate(0, -720)">
<path d="M0,0L720,0L720,720L0,720Z" style="fill:#FFFFFF" />
<text x="26.25" y="-0.18555" transform="scale(1, -1)"
	style="font-family:Times;font-weight:normal;font-style:normal;font-size:10px">0</text>
<text x="366.88" y="-0.18555" transform="scale(1, -1)"
	style="font-family:Times;font-weight:normal;font-style:normal;font-size:10px">10</text>
<text x="710" y="-0.18555" transform="scale(1, -1)"
	style="font-family:Times;font-weight:normal;font-style:normal;font-size:10px">20</text>
<path d="M28.75,9.8145L28.75,17.814" style="fill:none;stroke:#000000;stroke-width:0.5" />
<path d="M371.88,9.8145L371.88,17.814" style="fill:none;stroke:#000000;stroke-width:0.5" />
<path d="M715,9.8145L715,17.814" style="fill:none;stroke:#000000;stroke-width:0.5" />
<path d="M97.375,13.814L97.375,17.814" style="fill:none;stroke:#000000;stroke-width:0.5" />
<path d="M166,13.814L166,17.814" style="fill:none;stroke:#000000;stroke-width:0.5" />
<path d="M234.62,13.814L234.62,17.814" style="fill:none;stroke:#000000;stroke-width:0.5" />
<path d="M303.25,13.814L303.25,17.814" style="fill:none;stroke:#000000;stroke-width:0.5" />
<path d="M440.5,13.814L440.5,17.814" style="fill:none;stroke:#000000;stroke-width:0.5" />
<path d="M509.12,13.814L509.12,17.814" style="fill:none;stroke:#000000;stroke-width:0.5" />
<path d="M577.75,13.814L577.75,17.814" style="fill:none;stroke:#000000;stroke-width:0.5" />
<path d="M646.38,13.814L646.38,17.814" style="fill:none;stroke:#000000;stroke-width:0.5" />
<path d="M28.75,17.814L715,17.814" style="fill:none;stroke:#000000;stroke-width:0.5" />
<text x="5" y="-20.843" transform="scale(1, -1)"
	style="font-family:Times;font-weight:normal;font-style:normal;font-size:10px">0</text>
<text x="0" y="-365.61" transform="scale(1, -1)"
	style="font-family:Times;font-weight:normal;font-style:normal;font-size:10px">10</text>
<text x="0" y="-710.37" transform="scale(1, -1)"
	style="font-family:Times;font-weight:normal;font-style:normal;font-size:10px">20</text>
<path d="M12.5,25.564L20.5,25.564" style="fill:none;stroke:#000000;stroke-width:0.5" />
<path d="M12.5,370.33L20.5,370.33" style="fill:none;stroke:#000000;stroke-width:0.5" />
<path d="M12.5,715.09L20.5,715.09" style="fill:none;stroke:#000000;stroke-width:0.5" />
<path d="M16.5,94.517L20.5,94.517" style="fill:none;stroke:#000000;stroke-width:0.5" />
<path d="M16.5,163.47L20.5,163.47" style="fill:none;stroke:#000000;stroke-width:0.5" />
<path d="M16.5,232.42L20.5,232.42" style="fill:none;stroke:#000000;stroke-width:0.5" />
<path d="M16.5,301.38L20.5,301.38" style="fill:none;stroke:#000000;stroke-width:0.5" />
<path d="M16.5,439.28L20.5,439.28" style="fill:none;stroke:#000000;stroke-width:0.5" />
<path d="M16.5,508.23L20.5,508.23" style="fill:none;stroke:#000000;stroke-width:0.5" />
<path d="M16.5,577.19L20.5,577.19" style="fill:none;stroke:#000000;stroke-width:0.5" />
<path d="M16.5,646.14L20.5,646.14" style="fill:none;stroke:#000000;stroke-width:0.5" />
<path d="M20.5,25.564L20.5,715.09" style="fill:none;stroke:#000000;stroke-width:0.5" />
<path d="M28.75,60.041L63.062,25.564L28.75,60.041L63.062,60.041L28.75,60.041L28.75,94.517L63.062,128.99L97.375,163.47L63.062,197.95L97.375,197.95L131.69,232.42L97.375,232.42L131.69,266.9L166,301.38L200.31,301.38L234.62,301.38L268.94,301.38L268.94,335.85L268.94,370.33L303.25,370.33L303.25,404.81L337.56,439.28L337.56,473.76L371.88,439.28L406.19,404.81L371.88,439.28L337.56,439.28L303.25,439.28L268.94,473.76L268.94,508.23L303.25,508.23L303.25,542.71L337.56,577.19L371.88,611.66L371.88,646.14L337.56,680.62L371.88,715.09L406.19,715.09L371.88,715.09L406.19,680.62L406.19,646.14L371.88,680.62L406.19,715.09L371.88,715.09L337.56,680.62L371.88,715.09L406.19,715.09L440.5,715.09L474.81,715.09L440.5,715.09L474.81,680.62L509.12,680.62L543.44,680.62L543.44,715.09L577.75,715.09L543.44,680.62L577.75,646.14L612.06,646.14L577.75,611.66L612.06,646.14L577.75,646.14L577.75,680.62L577.75,715.09L612.06,715.09L646.38,680.62L680.69,715.09L715,680.62L680.69,715.09L715,680.62L680.69,680.62L646.38,646.14L680.69,646.14L715,611.66L680.69,646.14L680.69,680.62L715,680.62L715,715.09" style="fill:none;stroke:#F15A60" />
<path d="M31.25,60.041A2.5,2.5 0 1 1 26.25,60.041A2.5,2.5 0 1 1 31.25,60.041Z" style="fill:none;stroke:#F15A60;stroke-width:0.5" />
<path d="M65.562,25.564A2.5,2.5 0 1 1 60.562,25.564A2.5,2.5 0 1 1 65.562,25.564Z" style="fill:none;stroke:#F15A60;stroke-width:0.5" />
<path d="M31.25,60.041A2.5,2.5 0 1 1 26.25,60.041A2.5,2.5 0 1 1 31.25,60.041Z" style="fill:none;stroke:#F15A60;stroke-width:0.5" />
<path d="M65.562,60.041A2.5,2.5 0 1 1 60.562,60.041A2.5,2.5 0 1 1 65.562,60.041Z" style="fill:none;stroke:#F15A60;stroke-width:0.5" />
<path d="M31.25,60.041A2.5,2.5 0 1 1 26.25,60.041A2.5,2.5 0 1 1 31.25,60.041Z" style="fill:none;stroke:#F15A60;stroke-width:0.5" />
<path d="M31.25,94.517A2.5,2.5 0 1 1 26.25,94.517A2.5,2.5 0 1 1 31.25,94.517Z" style="fill:none;stroke:#F15A60;stroke-width:0.5" />
<path d="M65.562,128.99A2.5,2.5 0 1 1 60.562,128.99A2.5,2.5 0 1 1 65.562,128.99Z" style="fill:none;stroke:#F15A60;stroke-width:0.5" />
<path d="M99.875,163.47A2.5,2.5 0 1 1 94.875,163.47A2.5,2.5 0 1 1 99.875,163.47Z" style="fill:none;stroke:#F15A60;stroke-width:0.5" />
<path d="M65.562,197.95A2.5,2.5 0 1 1 60.562,197.95A2.5,2.5 0 1 1 65.562,197.95Z" style="fill:none;stroke:#F15A60;stroke-width:0.5" />
<path d="M99.875,197.95A2.5,2.5 0 1 1 94.875,197.95A2.5,2.5 0 1 1 99.875,197.95Z" style="fill:none;stroke:#F15A60;stroke-width:0.5" />
<path d="M134.19,232.42A2.5,2.5 0 1 1 129.19,232.42A2.5,2.5 0 1 1 134.19,232.42Z" style="fill:none;stroke:#F15A60;stroke-width:0.5" />
<path d="M99.875,232.42A2.5,2.5 0 1 1 94.875,232.42A2.5,2.5 0 1 1 99.875,232.42Z" style="fill:none;stroke:#F15A60;stroke-width:0.5" />
<path d="M134.19,266.9A2.5,2.5 0 1 1 129.19,266.9A2.5,2.5 0 1 1 134.19,266.9Z" style="fill:none;stroke:#F15A60;stroke-width:0.5" />
<path d="M168.5,301.38A2.5,2.5 0 1 1 163.5,301.38A2.5,2.5 0 1 1 168.5,301.38Z" style="fill:none;stroke:#F15A60;stroke-width:0.5" />
<path d="M202.81,301.38A2.5,2.5 0 1 1 197.81,301.38A2.5,2.5 0 1 1 202.81,301.38Z" style="fill:none;stroke:#F15A60;stroke-width:0.5" />
<path d="M237.12,301.38A2.5,2.5 0 1 1 232.12,301.38A2.5,2.5 0 1 1 237.12,301.38Z" style="fill:none;stroke:#F15A60;stroke-width:0.5" />
<path d="M271.44,301.38A2.5,2.5 0 1 1 266.44,301.38A2.5,2.5 0 1 1 271.44,301.38Z" style="fill:none;stroke:#F15A60;stroke-width:0.5" />
<path d="M271.44,335.85A2.5,2.5 0 1 1 266.44,335.85A2.5,2.5 0 1 1 271.44,335.85Z" style="fill:none;stroke:#F15A60;stroke-width:0.5" />
<path d="M271.44,370.33A2.5,2.5 0 1 1 266.44,370.33A2.5,2.5 0 1 1 271.44,370.33Z" style="fill:none;stroke:#F15A60;stroke-width:0.5" />
<path d="M305.75,370.33A2.5,2.5 0 1 1 300.75,370.33A2.5,2.5 0 1 1 305.75,370.33Z" style="fill:none;stroke:#F15A60;stroke-width:0.5" />
<path d="M305.75,404.81A2.5,2.5 0 1 1 300.75,404.81A2.5,2.5 0 1 1 305.75,404.81Z" style="fill:none;stroke:#F15A60;stroke-width:0.5" />
<path d="M340.06,439.28A2.5,2.5 0 1 1 335.06,439.28A2.5,2.5 0 1 1 340.06,439.28Z" style="fill:none;stroke:#F15A60;stroke-width:0.5" />
<path d="M340.06,473.76A2.5,2.5 0 1 1 335.06,473.76A2.5,2.5 0 1 1 340.06,473.76Z" style="fill:none;stroke:#F15A60;stroke-width:0.5" />
<path d="M374.38,439.28A2.5,2.5 0 1 1 369.38,439.28A2.5,2.5 0 1 1 374.38,439.28Z" style="fill:none;stroke:#F15A60;stroke-width:0.5" />
<path d="M408.69,404.81A2.5,2.5 0 1 1 403.69,404.81A2.5,2.5 0 1 1 408.69,404.81Z" style="fill:none;stroke:#F15A60;stroke-width:0.5" />
<path d="M374.38,439.28A2.5,2.5 0 1 1 369.38,439.28A2.5,2.5 0 1 1 374.38,439.28Z" style="fill:none;stroke:#F15A60;stroke-width:0.5" />
<path d="M340.06,439.28A2.5,2.5 0 1 1 335.06,439.28A2.5,2.5 0 1 1 340.06,439.28Z" style="fill:none;stroke:#F15A60;stroke-width:0.5" />
<path d="M305.75,439.28A2.5,2.5 0 1 1 300.75,439.28A2.5,2.5 0 1 1 305.75,439.28Z" style="fill:none;stroke:#F15A60;stroke-width:0.5" />
<path d="M271.44,473.76A2.5,2.5 0 1 1 266.44,473.76A2.5,2.5 0 1 1 271.44,473.76Z" style="fill:none;stroke:#F15A60;stroke-width:0.5" />
<path d="M271.44,508.23A2.5,2.5 0 1 1 266.44,508.23A2.5,2.5 0 1 1 271.44,508.23Z" style="fill:none;stroke:#F15A60;stroke-width:0.5" />
<path d="M305.75,508.23A2.5,2.5 0 1 1 300.75,508.23A2.5,2.5 0 1 1 305.75,508.23Z" style="fill:none;stroke:#F15A60;stroke-width:0.5" />
<path d="M305.75,542.71A2.5,2.5 0 1 1 300.75,542.71A2.5,2.5 0 1 1 305.75,542.71Z" style="fill:none;stroke:#F15A60;stroke-width:0.5" />
<path d="M340.06,577.19A2.5,2.5 0 1 1 335.06,577.19A2.5,2.5 0 1 1 340.06,577.19Z" style="fill:none;stroke:#F15A60;stroke-width:0.5" />
<path d="M374.38,611.66A2.5,2.5 0 1 1 369.38,611.66A2.5,2.5 0 1 1 374.38,611.66Z" style="fill:none;stroke:#F15A60;stroke-width:0.5" />
<path d="M374.38,646.14A2.5,2.5 0 1 1 369.38,646.14A2.5,2.5 0 1 1 374.38,646.14Z" style="fill:none;stroke:#F15A60;stroke-width:0.5" />
<path d="M340.06,680.62A2.5,2.5 0 1 1 335.06,680.62A2.5,2.5 0 1 1 340.06,680.62Z" style="fill:none;stroke:#F15A60;stroke-width:0.5" />
<path d="M374.38,715.09A2.5,2.5 0 1 1 369.38,715.09A2.5,2.5 0 1 1 374.38,715.09Z" style="fill:none;stroke:#F15A60;stroke-width:0.5" />
<path d="M408.69,715.09A2.5,2.5 0 1 1 403.69,715.09A2.5,2.5 0 1 1 408.69,715.09Z" style="fill:none;stroke:#F15A60;stroke-width:0.5" />
<path d="M374.38,715.09A2.5,2.5 0 1 1 369.38,715.09A2.5,2.5 0 1 1 374.38,715.09Z" style="fill:none;stroke:#F15A60;stroke-width:0.5" />
<path d="M408.69,680.62A2.5,2.5 0 1 1 403.69,680.62A2.5,2.5 0 1 1 408.69,680.62Z" style="fill:none;stroke:#F15A60;stroke-width:0.5" />
<path d="M408.69,646.14A2.5,2.5 0 1 1 403.69,646.14A2.5,2.5 0 1 1 408.69,646.14Z" style="fill:none;stroke:#F15A60;stroke-width:0.5" />
<path d="M374.38,680.62A2.5,2.5 0 1 1 369.38,680.62A2.5,2.5 0 1 1 374.38,680.62Z" style="fill:none;stroke:#F15A60;stroke-width:0.5" />
<path d="M408.69,715.09A2.5,2.5 0 1 1 403.69,715.09A2.5,2.5 0 1 1 408.69,715.09Z" style="fill:none;stroke:#F15A60;stroke-width:0.5" />
<path d="M374.38,715.09A2.5,2.5 0 1 1 369.38,715.09A2.5,2.5 0 1 1 374.38,715.09Z" style="fill:none;stroke:#F15A60;stroke-width:0.5" />
<path d="M340.06,680.62A2.5,2.5 0 1 1 335.06,680.62A2.5,2.5 0 1 1 340.06,680.62Z" style="fill:none;stroke:#F15A60;stroke-width:0.5" />
<path d="M374.38,715.09A2.5,2.5 0 1 1 369.38,715.09A2.5,2.5 0 1 1 374.38,715.09Z" style="fill:none;stroke:#F15A60;stroke-width:0.5" />
<path d="M408.69,715.09A2.5,2.5 0 1 1 403.69,715.09A2.5,2.5 0 1 1 408.69,715.09Z" style="fill:none;stroke:#F15A60;stroke-width:0.5" />
<path d="M443,715.09A2.5,2.5 0 1 1 438,715.09A2.5,2.5 0 1 1 443,715.09Z" style="fill:none;stroke:#F15A60;stroke-width:0.5" />
<path d="M477.31,715.09A2.5,2.5 0 1 1 472.31,715.09A2.5,2.5 0 1 1 477.31,715.09Z" style="fill:none;stroke:#F15A60;stroke-width:0.5" />
<path d="M443,715.09A2.5,2.5 0 1 1 438,715.09A2.5,2.5 0 1 1 443,715.09Z" style="fill:none;stroke:#F15A60;stroke-width:0.5" />
<path d="M477.31,680.62A2.5,2.5 0 1 1 472.31,680.62A2.5,2.5 0 1 1 477.31,680.62Z" style="fill:none;stroke:#F15A60;stroke-width:0.5" />
<path d="M511.62,680.62A2.5,2.5 0 1 1 506.62,680.62A2.5,2.5 0 1 1 511.62,680.62Z" style="fill:none;stroke:#F15A60;stroke-width:0.5" />
<path d="M545.94,680.62A2.5,2.5 0 1 1 540.94,680.62A2.5,2.5 0 1 1 545.94,680.62Z" style="fill:none;stroke:#F15A60;stroke-width:0.5" />
<path d="M545.94,715.09A2.5,2.5 0 1 1 540.94,715.09A2.5,2.5 0 1 1 545.94,715.09Z" style="fill:none;stroke:#F15A60;stroke-width:0.5" />
<path d="M580.25,715.09A2.5,2.5 0 1 1 575.25,715.09A2.5,2.5 0 1 1 580.25,715.09Z" style="fill:none;stroke:#F15A60;stroke-width:0.5" />
<path d="M545.94,680.62A2.5,2.5 0 1 1 540.94,680.62A2.5,2.5 0 1 1 545.94,680.62Z" style="fill:none;stroke:#F15A60;stroke-width:0.5" />
<path d="M580.25,646.14A2.5,2.5 0 1 1 575.25,646.14A2.5,2.5 0 1 1 580.25,646.14Z" style="fill:none;stroke:#F15A60;stroke-width:0.5" />
<path d="M614.56,646.14A2.5,2.5 0 1 1 609.56,646.14A2.5,2.5 0 1 1 614.56,646.14Z" style="fill:none;stroke:#F15A60;stroke-width:0.5" />
<path d="M580.25,611.66A2.5,2.5 0 1 1 575.25,611.66A2.5,2.5 0 1 1 580.25,611.66Z" style="fill:none;stroke:#F15A60;stroke-width:0.5" />
<path d="M614.56,646.14A2.5,2.5 0 1 1 609.56,646.14A2.5,2.5 0 1 1 614.56,646.14Z" style="fill:none;stroke:#F15A60;stroke-width:0.5" />
<path d="M580.25,646.14A2.5,2.5 0 1 1 575.25,646.14A2.5,2.5 0 1 1 580.25,646.14Z" style="fill:none;stroke:#F15A60;stroke-width:0.5" />
<path d="M580.25,680.62A2.5,2.5 0 1 1 575.25,680.62A2.5,2.5 0 1 1 580.25,680.62Z" style="fill:none;stroke:#F15A60;stroke-width:0.5" />
<path d="M580.25,715.09A2.5,2.5 0 1 1 575.25,715.09A2.5,2.5 0 1 1 580.25,715.09Z" style="fill:none;stroke:#F15A60;stroke-width:0.5" />
<path d="M614.56,715.09A2.5,2.5 0 1 1 609.56,715.09A2.5,2.5 0 1 1 614.56,715.09Z" style="fill:none;stroke:#F15A60;stroke-width:0.5" />
<path d="M648.88,680.62A2.5,2.5 0 1 1 643.88,680.62A2.5,2.5 0 1 1 648.88,680.62Z" style="fill:none;stroke:#F15A60;stroke-width:0.5" />
<path d="M683.19,715.09A2.5,2.5 0 1 1 678.19,715.09A2.5,2.5 0 1 1 683.19,715.09Z" style="fill:none;stroke:#F15A60;stroke-width:0.5" />
<path d="M717.5,680.62A2.5,2.5 0 1 1 712.5,680.62A2.5,2.5 0 1 1 717.5,680.62Z" style="fill:none;stroke:#F15A60;stroke-width:0.5" />
<path d="M683.19,715.09A2.5,2.5 0 1 1 678.19,715.09A2.5,2.5 0 1 1 683.19,715.09Z" style="fill:none;stroke:#F15A60;stroke-width:0.5" />
<path d="M717.5,680.62A2.5,2.5 0 1 1 712.5,680.62A2.5,2.5 0 1 1 717.5,680.62Z" style="fill:none;stroke:#F15A60;stroke-width:0.5" />
<path d="M683.19,680.62A2.5,2.5 0 1 1 678.19,680.62A2.5,2.5 0 1 1 683.19,680.62Z" style="fill:none;stroke:#F15A60;stroke-width:0.5" />
<path d="M648.88,646.14A2.5,2.5 0 1 1 643.88,646.14A2.5,2.5 0 1 1 648.88,646.14Z" style="fill:none;stroke:#F15A60;stroke-width:0.5" />
<path d="M683.19,646.14A2.5,2.5 0 1 1 678.19,646.14A2.5,2.5 0 1 1 683.19,646.14Z" style="fill:none;stroke:#F15A60;stroke-width:0.5" />
<path d="M717.5,611.66A2.5,2.5 0 1 1 712.5,611.66A2.5,2.5 0 1 1 717.5,611.66Z" style="fill:none;stroke:#F15A60;stroke-width:0.5" />
<path d="M683.19,646.14A2.5,2.5 0 1 1 678.19,646.14A2.5,2.5 0 1 1 683.19,646.14Z" style="fill:none;stroke:#F15A60;stroke-width:0.5" />
<path d="M683.19,680.62A2.5,2.5 0 1 1 678.19,680.62A2.5,2.5 0 1 1 683.19,680.62Z" style="fill:none;stroke:#F15A60;stroke-width:0.5" />
<path d="M717.5,680.62A2.5,2.5 0 1 1 712.5,680.62A2.5,2.5 0 1 1 717.5,680.62Z" style="fill:none;stroke:#F15A60;stroke-width:0.5" />
<path d="M717.5,715.09A2.5,2.5 0 1 1 712.5,715.09A2.5,2.5 0 1 1 717.5,715.09Z" style="fill:none;stroke:#F15A60;stroke-width:0.5" />
</g>
</svg>
